<svg xmlns="http://www.w3.org/2000/svg" xmlns:xlink="http://www.w3.org/1999/xlink" viewBox="-50 0 805.1 522.28" preserveAspectRatio="none" overflow="auto">
  <defs>
    <style>

    @keyframes star_boner {
      from { transform: scale(0); }
      to   { transform: scale(1); }
    }

    @keyframes flare_spin {
      from { transform: rotate(0deg);   opacity: 1; }
      to   { transform: rotate(360deg); opacity: 1; }
    }

    @keyframes flare_scale {
      0%   { transform: scale(0) rotate(-45deg);     opacity: 0.5;  }
      50%  { transform: scale(0.5) rotate(-22.5deg);   opacity: 0.75; }
/*      85%  { transform: scale(1.5) rotate(-6.75deg); opacity: 1; ; } */
      100% { transform: scale(1.0) rotate(0deg);  opacity: 1; }
    }

    @keyframes text_pulse {
      0%   { transform: scale(0.7);   opacity: 0;  }
      50%  { transform: scale(1.0);   opacity: 0.75; }
      85%  { transform: scale(1.15);  opacity: 1;  }
      100% { transform: scale(1.00);  opacity: 1; }
    }

    .logo_stars {
      animation-duration: 1000ms;
      transform-origin: center;
      animation-play-state: paused;
      animation-timing-function: ease-in-out;
      animation-name: star_boner;
      animation-fill-mode: forwards;
      animation-iteration-count: 1;
    }

    #ytmnd_logo {
      animation-duration: 800ms;
      animation-name: text_pulse;
      transform-box: fill-box;
      animation-timing-function: linear;
      transform-origin: center;
      animation-fill-mode: forwards;
      animation-play-state: running;
      animation-iteration-count: 1;
    }

    #flare_top, #flare_bottom {
      animation-duration: 500ms, 4000ms;
      animation-name: flare_scale, flare_spin;
      transform-box: fill-box;
      animation-timing-function: linear;
      transform-origin: center;
      animation-play-state: paused;
      animation-iteration-count: 1, infinite;
      display: none;
      opacity: 0;
    }

    #flare_top {
      animation-delay: 0ms, 500ms;
    }

    #flare_bottom {
      animation-delay: 400ms, 900ms;
    }

    .logo_stars {
      transform: scale(0);
    }

    /**
     * Autogenerated CSS starts here.
     */

      .cls-1 {
        isolation: isolate;
      }

      .cls-2 {
        fill: url(#linear-gradient);
      }

      .cls-3 {
        fill: url(#linear-gradient-2);
      }

      .cls-4 {
        fill: #cd2a14;
      }

      .cls-5 {
        fill: #a60200;
      }

      .cls-6 {
        fill: url(#linear-gradient-3);
      }

      .cls-7 {
        fill: url(#linear-gradient-4);
      }

      .cls-8 {
        fill: #a10000;
      }

      .cls-9 {
        fill: url(#linear-gradient-5);
      }

      .cls-10 {
        fill: url(#linear-gradient-6);
      }

      .cls-11 {
        fill: url(#linear-gradient-7);
      }

      .cls-12 {
        fill: #780000;
      }

      .cls-13 {
        fill: url(#linear-gradient-8);
      }

      .cls-14 {
        fill: #c10700;
      }

      .cls-15 {
        fill: #900;
      }

      .cls-16 {
        fill: #970000;
      }

      .cls-17 {
        fill: url(#linear-gradient-9);
      }

      .cls-18 {
        fill: #c00600;
      }

      .cls-19 {
        fill: #960000;
      }

      .cls-20 {
        fill: #9b0000;
      }

      .cls-21 {
        fill: url(#linear-gradient-10);
      }

      .cls-22 {
        fill: url(#linear-gradient-11);
      }

      .cls-23 {
        fill: url(#linear-gradient-12);
      }

      .cls-24 {
        fill: url(#linear-gradient-13);
      }

      .cls-25 {
        fill: url(#linear-gradient-14);
      }

      .cls-26 {
        fill: #9a0000;
      }

      .cls-27 {
        fill: url(#linear-gradient-15);
      }

      .cls-28 {
        fill: url(#linear-gradient-16);
      }

      .cls-29 {
        fill: #b20200;
      }

      .cls-30 {
        fill: #8e0000;
      }

      .cls-31 {
        fill: #860000;
      }

      .cls-32 {
        fill: url(#linear-gradient-17);
      }

      .cls-33 {
        fill: #d71f00;
      }

      .cls-34 {
        fill: #b10000;
      }

      .cls-35 {
        fill: #b20001;
      }

      .cls-36 {
        fill: url(#linear-gradient-18);
      }

      .cls-37 {
        fill: url(#linear-gradient-19);
      }

      .cls-38 {
        fill: #870000;
      }

      .cls-39 {
        fill: url(#linear-gradient-20);
      }

      .cls-40 {
        fill: #980000;
      }

      .cls-41 {
        fill: #8f0000;
      }

      .cls-42 {
        fill: url(#linear-gradient-21);
      }

      .cls-43 {
        fill: url(#linear-gradient-22);
      }

      .cls-44 {
        fill: url(#linear-gradient-23);
      }

      .cls-45 {
        fill: url(#linear-gradient-24);
      }

      .cls-46 {
        fill: #940000;
      }

      .cls-47 {
        fill: #a20100;
      }

      .cls-48 {
        fill: url(#linear-gradient-25);
      }

      .cls-49 {
        fill: #d61e00;
      }

      .cls-50 {
        fill: #b00000;
      }

      .cls-51 {
        fill: url(#linear-gradient-26);
      }

      .cls-52 {
        fill: #be0100;
      }

      .cls-53 {
        fill: #970200;
      }

      .cls-54 {
        fill: url(#linear-gradient-27);
      }

      .cls-55 {
        fill: #830000;
      }

      .cls-56 {
        fill: url(#linear-gradient-28);
      }

      .cls-57 {
        fill: url(#linear-gradient-29);
      }

      .cls-58 {
        fill: url(#linear-gradient-30);
      }

      .cls-59 {
        fill: #fff;
      }

      .cls-60 {
        fill: url(#linear-gradient-31);
      }

      .cls-61 {
        fill: url(#linear-gradient-32);
      }

      .cls-62 {
        fill: url(#linear-gradient-33);
      }

      .cls-63 {
        fill: url(#linear-gradient-34);
      }

      .cls-64 {
        fill: url(#linear-gradient-35);
      }

      .cls-65 {
        fill: url(#linear-gradient-36);
      }

      .cls-66 {
        fill: url(#linear-gradient-37);
      }

      .cls-67 {
        fill: url(#linear-gradient-38);
      }

      .cls-68 {
        fill: url(#linear-gradient-39);
      }

      .cls-69 {
        fill: url(#linear-gradient-40);
      }

      .cls-70, .cls-71 {
        opacity: 0.75;
      }

      .cls-70 {
        mix-blend-mode: screen;
      }

      .cls-71 {
        mix-blend-mode: multiply;
      }

      .cls-72 {
        fill: #231f20;
      }
    </style>
    <!-- Blur Filter -->
    <filter id="blur"><feGaussianBlur in="SourceGraphic" stdDeviation="2" /></filter>
    <filter id="blurless"><feGaussianBlur in="SourceGraphic" stdDeviation="1" /></filter>
    <linearGradient id="linear-gradient" x1="567.97" y1="462.14" x2="577.79" y2="397.38" gradientUnits="userSpaceOnUse">
      <stop offset="0" stop-color="#ff5822"/>
      <stop offset="1" stop-color="#e02000"/>
    </linearGradient>
    <linearGradient id="linear-gradient-2" x1="420.69" y1="431.29" x2="459.26" y2="459.1" gradientUnits="userSpaceOnUse">
      <stop offset="0" stop-color="#b31400"/>
      <stop offset="1" stop-color="#d90500"/>
    </linearGradient>
    <linearGradient id="linear-gradient-3" x1="609.36" y1="673.22" x2="551.61" y2="627.02" gradientUnits="userSpaceOnUse">
      <stop offset="0.01" stop-color="#ea3702"/>
      <stop offset="1" stop-color="#ff5923"/>
    </linearGradient>
    <linearGradient id="linear-gradient-4" x1="407.19" y1="401.29" x2="445.76" y2="429.1" xlink:href="#linear-gradient-2"/>
    <linearGradient id="linear-gradient-5" x1="326.33" y1="293.97" x2="359.43" y2="382.18" gradientUnits="userSpaceOnUse">
      <stop offset="0.01" stop-color="#ea3702"/>
      <stop offset="1" stop-color="#ff5822"/>
    </linearGradient>
    <linearGradient id="linear-gradient-6" x1="229.39" y1="719.84" x2="241.95" y2="667.42" xlink:href="#linear-gradient-3"/>
    <linearGradient id="linear-gradient-7" x1="356.8" y1="734.88" x2="354.15" y2="685.52" xlink:href="#linear-gradient-3"/>
    <linearGradient id="linear-gradient-8" x1="450.31" y1="664.17" x2="474.78" y2="686.76" gradientUnits="userSpaceOnUse">
      <stop offset="0.01" stop-color="#ff3500"/>
      <stop offset="1" stop-color="#df1c00"/>
    </linearGradient>
    <linearGradient id="linear-gradient-9" x1="688.5" y1="647.26" x2="626.37" y2="597.74" gradientUnits="userSpaceOnUse">
      <stop offset="0" stop-color="#ea5100"/>
      <stop offset="1" stop-color="#ff7b1f"/>
    </linearGradient>
    <linearGradient id="linear-gradient-10" x1="716.88" y1="538.69" x2="656.23" y2="488.15" xlink:href="#linear-gradient-9"/>
    <linearGradient id="linear-gradient-11" x1="672.63" y1="297.33" x2="657.55" y2="352.35" xlink:href="#linear-gradient-5"/>
    <linearGradient id="linear-gradient-12" x1="544.7" y1="277.19" x2="551.1" y2="341.5" xlink:href="#linear-gradient-5"/>
    <linearGradient id="linear-gradient-13" x1="453.98" y1="355.91" x2="433.16" y2="332.38" xlink:href="#linear-gradient-8"/>
    <linearGradient id="linear-gradient-14" x1="215.72" y1="361.01" x2="238.63" y2="390.46" gradientUnits="userSpaceOnUse">
      <stop offset="0" stop-color="#ea5100"/>
      <stop offset="1" stop-color="#ff6306"/>
    </linearGradient>
    <linearGradient id="linear-gradient-15" x1="182.94" y1="484.91" x2="201.87" y2="484.91" xlink:href="#linear-gradient-14"/>
    <linearGradient id="linear-gradient-16" x1="215.73" y1="598.67" x2="227.36" y2="591.52" xlink:href="#linear-gradient-14"/>
    <linearGradient id="linear-gradient-17" x1="265.94" y1="611.04" x2="271.3" y2="594.97" xlink:href="#linear-gradient-14"/>
    <linearGradient id="linear-gradient-18" x1="431.17" y1="643.19" x2="408.83" y2="612.81" xlink:href="#linear-gradient-9"/>
    <linearGradient id="linear-gradient-19" x1="510.84" y1="615.18" x2="482.75" y2="586.36" xlink:href="#linear-gradient-9"/>
    <linearGradient id="linear-gradient-20" x1="673.95" y1="579.49" x2="647.87" y2="569.23" gradientUnits="userSpaceOnUse">
      <stop offset="0" stop-color="#db4700"/>
      <stop offset="1" stop-color="#fe5e03"/>
    </linearGradient>
    <linearGradient id="linear-gradient-21" x1="689.82" y1="414.51" x2="648.47" y2="478.31" xlink:href="#linear-gradient-9"/>
    <linearGradient id="linear-gradient-22" x1="637.34" y1="390.58" x2="631.97" y2="423.7" xlink:href="#linear-gradient-20"/>
    <linearGradient id="linear-gradient-23" x1="473.9" y1="370.03" x2="501.22" y2="417.04" xlink:href="#linear-gradient-9"/>
    <linearGradient id="linear-gradient-24" x1="366.22" y1="458.66" x2="366.22" y2="481.75" gradientUnits="userSpaceOnUse">
      <stop offset="0" stop-color="#db3a00"/>
      <stop offset="1" stop-color="#eb4419"/>
    </linearGradient>
    <linearGradient id="linear-gradient-25" x1="387.19" y1="402.95" x2="425.76" y2="430.77" xlink:href="#linear-gradient-9"/>
    <linearGradient id="linear-gradient-26" x1="422.12" y1="392.24" x2="452.61" y2="455.92" xlink:href="#linear-gradient-9"/>
    <linearGradient id="linear-gradient-27" x1="371.31" y1="447.81" x2="384.69" y2="469.21" xlink:href="#linear-gradient-20"/>
    <linearGradient id="linear-gradient-28" x1="240.18" y1="444.27" x2="255.73" y2="446.6" xlink:href="#linear-gradient-20"/>
    <linearGradient id="linear-gradient-29" x1="209.18" y1="537.17" x2="221.36" y2="529.67" xlink:href="#linear-gradient-14"/>
    <linearGradient id="linear-gradient-30" x1="469.94" y1="601.58" x2="452.46" y2="566.78" xlink:href="#linear-gradient-9"/>
    <linearGradient id="linear-gradient-31" x1="271.72" y1="629.76" x2="603.01" y2="808.05" gradientUnits="userSpaceOnUse">
      <stop offset="0.01" stop-color="#a2a2a2"/>
      <stop offset="1" stop-color="#525252"/>
    </linearGradient>
    <linearGradient id="linear-gradient-32" x1="285.85" y1="548.4" x2="617.69" y2="726.99" xlink:href="#linear-gradient-31"/>
    <linearGradient id="linear-gradient-33" x1="302.47" y1="481.14" x2="600.46" y2="641.51" xlink:href="#linear-gradient-31"/>
    <linearGradient id="linear-gradient-34" x1="323.78" y1="376.78" x2="633.83" y2="543.64" xlink:href="#linear-gradient-31"/>
    <linearGradient id="linear-gradient-35" x1="344.63" y1="268.09" x2="664.44" y2="440.21" xlink:href="#linear-gradient-31"/>
    <linearGradient id="linear-gradient-36" x1="170.69" y1="527.04" x2="174.69" y2="451.04" gradientUnits="userSpaceOnUse">
      <stop offset="0" stop-color="#ff5823"/>
      <stop offset="1" stop-color="#e12001"/>
    </linearGradient>
    <linearGradient id="linear-gradient-37" x1="275.76" y1="532.56" x2="279.76" y2="456.56" xlink:href="#linear-gradient-36"/>
    <linearGradient id="linear-gradient-38" x1="417.04" y1="540.01" x2="421.04" y2="464.01" xlink:href="#linear-gradient-36"/>
    <linearGradient id="linear-gradient-39" x1="586.25" y1="548.9" x2="590.25" y2="472.9" xlink:href="#linear-gradient-36"/>
    <linearGradient id="linear-gradient-40" x1="717.74" y1="555.83" x2="721.74" y2="479.83" xlink:href="#linear-gradient-36"/>
  </defs>
  <title>ytmnd_logo</title>
  <g class="cls-1">
    <g id="star_29_s_notrail" class="logo_stars" data-name="star 29 s notrail">
      <path class="cls-2" d="M600.23,426.91l-18.11-4.4-2.19-18.24c-.39-3.28-2.15-3.68-3.92-.89l-10.07,15.93-17.78-2.74c-3.26-.5-4.21,1.17-2.11,3.71l11.41,13.8L548.64,451c-1.53,2.93-.3,4.24,2.72,2.92l17-7.43L581,460c2.25,2.41,3.93,1.69,3.74-1.6l-1.1-19L600.68,431C603.64,429.52,603.43,427.69,600.23,426.91Z" transform="translate(-96.07 -248.73)"/>
    </g>
    <g id="star_28_s_notrail" class="logo_stars" data-name="star 28 s notrail">
      <path class="cls-3" d="M408.32,437.11c-2.9-1.58-2.62-3.35.63-3.93l18.27-3.29c3.24-.59,8.59-1.32,11.87-1.63l18.07-1.72c3.29-.32,4,1.32,1.69,3.63l-12.54,12.28c-2.36,2.31-6.33,6-8.82,8.13l-14,12.12c-2.5,2.16-4.1,1.26-3.56-2l2.91-17.52c.54-3.26,1.58-8.55,2.31-11.77L428.88,415c.73-3.22,2.64-3.49,4.25-.61l8.32,15c1.6,2.88,4,7.71,5.37,10.72L454,456.18c1.35,3,0,4.3-2.95,2.87l-16.4-7.93c-3-1.44-7.78-3.9-10.68-5.48Z" transform="translate(-96.07 -248.73)"/>
    </g>
    <g id="star_25_l" class="logo_stars" data-name="star 25 l">
      <polygon class="cls-4" points="552.92 355.27 423.93 242.27 345.59 261.6 396.05 394.02 552.92 355.27"/>
      <polygon class="cls-5" points="452.59 376.27 389.93 248.27 409.93 244.27 462.93 318.27 452.59 376.27"/>
      <polygon class="cls-5" points="445.55 473.83 413.26 396.27 459.76 407.93 445.55 473.83"/>
      <path class="cls-6" d="M643.15,601.41,593.76,611l-27.15-39.49c-5.61-8.16-11.21-6.79-12.45,3l-6,47.28-49.13,13.85c-9.53,2.68-10,8.35-1.06,12.59l45.68,21.64-3.09,46.29c-.66,9.88,4.76,12.48,12,5.77l37.07-34.09,44.43,14.69c9.4,3.11,13.09-1.39,8.2-10l-22-38.64,29.88-41.3C656.07,604.56,652.87,599.53,643.15,601.41Z" transform="translate(-96.07 -248.73)"/>
    </g>
    <g id="star_24_l" class="logo_stars" data-name="star 24 l">
      <path class="cls-7" d="M394.82,407.11c-2.9-1.58-2.62-3.35.63-3.93l18.27-3.29c3.24-.59,8.59-1.32,11.87-1.63l18.07-1.72c3.29-.32,4,1.32,1.69,3.63l-12.54,12.28c-2.36,2.31-6.33,6-8.82,8.13L410,432.7c-2.5,2.16-4.1,1.26-3.56-2l2.91-17.52c.54-3.26,1.58-8.55,2.31-11.77L415.38,385c.73-3.22,2.64-3.49,4.25-.61l8.32,15c1.6,2.88,4,7.71,5.37,10.72l7.2,16.06c1.36,3,0,4.3-2.94,2.87l-16.4-7.93c-3-1.44-7.78-3.9-10.68-5.48Z" transform="translate(-96.07 -248.73)"/>
      <polygon class="cls-4" points="161.91 97.26 223.93 262.27 320.93 256.08 320.93 138.27 161.91 97.26"/>
      <polygon class="cls-5" points="224.93 172.27 240.93 260.27 267.93 257.27 261.26 121.27 224.93 172.27"/>
      <polygon class="cls-8" points="315.78 39.72 306.09 125.77 268.09 86.43 315.78 39.72"/>
      <path class="cls-9" d="M414.87,378.54l-30.08-42.48,24.87-40.57c5.18-8.44,1.63-13.11-7.89-10.37l-47.72,13.71-32-34.41c-6.74-7.25-12.37-5.08-12.52,4.82L308.83,316l-44.89,21.87c-8.9,4.33-8.41,10.16,1.09,12.95l45.76,13.44,5.49,51.42c1.05,9.84,6.56,11.27,12.25,3.16L358,377l49.81,12C417.4,391.33,420.59,386.62,414.87,378.54Z" transform="translate(-96.07 -248.73)"/>
    </g>
    <g id="star_23_m" class="logo_stars" data-name="star 23 m">
      <polygon class="cls-4" points="112.17 388.27 214.93 270.27 229.93 277.27 196.18 471.02 112.17 388.27"/>
      <polygon class="cls-5" points="91.51 444.77 75.92 450.68 112.92 403.27 117.92 436.27 91.51 444.77"/>
      <polygon class="cls-5" points="144.26 415.27 216.93 272.27 224.93 275.27 185.93 399.27 144.26 415.27"/>
      <path class="cls-10" d="M289.54,713.45,265,686.62l17-32.14c3.6-6.8.78-9.85-6.28-6.78l-34.57,15L215.38,639c-5.67-5.21-9.75-3.2-9.08,4.47l3,34.76-33.71,18.09c-6.79,3.65-6.26,8.3,1.16,10.35l37.28,10.26,4.51,30.55c1.13,7.62,5.33,8.47,9.35,1.9l17-27.9,40,1.71C292.69,723.51,294.74,719.13,289.54,713.45Z" transform="translate(-96.07 -248.73)"/>
    </g>
    <g id="star_22_m" class="logo_stars" data-name="star 22 m">
      <polygon class="cls-5" points="200.18 485.08 224.26 424.93 233.18 457.14 200.18 485.08"/>
      <polygon class="cls-4" points="217.26 415.27 280.59 256.26 307.59 262.26 320.3 469.89 217.26 415.27"/>
      <polygon class="cls-5" points="255.76 431.6 292.93 257.27 297.93 260.27 284.93 410.27 255.76 431.6"/>
      <path class="cls-11" d="M412.27,714l-30.85-18.82L388.54,660c1.53-7.55-2.07-9.69-8-4.76L352,679l-31.22-15.53c-6.9-3.43-10.24-.37-7.42,6.8l12.67,32.27L299.2,729c-5.49,5.4-3.68,9.56,4,9.25l37.58-1.54L354.37,766c3.23,7,7.5,6.62,9.48-.82l8.68-32.58,38-8.3C418.07,722.67,418.84,718,412.27,714Z" transform="translate(-96.07 -248.73)"/>
    </g>
    <g id="star_21_m" class="logo_stars" data-name="star 21 m">
      <polygon class="cls-5" points="389.4 384.29 360.74 261.95 301.93 253.27 308.93 436.64 349.26 414.27 389.4 384.29"/>
      <polygon class="cls-12" points="406.36 439.08 382.93 389.27 370.93 424.27 406.36 439.08"/>
      <polygon class="cls-12" points="355.93 403.27 321.93 272.27 313.93 277.27 328.93 383.27 355.93 403.27"/>
      <path class="cls-13" d="M500.5,685.34l-23.44-19.67,8.46-28.35c1.58-5.27-.94-7.19-5.6-4.27L455,648.71,429.6,630.84c-4.49-3.16-7-1.42-5.48,3.88l8.17,29.21-24.74,17.63c-4.48,3.19-3.66,6.11,1.83,6.5l31,2.2,9.79,29.48c1.74,5.22,4.8,5.3,6.82.18l11.23-28.52,30,.27C503.67,691.72,504.72,688.87,500.5,685.34Z" transform="translate(-96.07 -248.73)"/>
    </g>
    <g id="star_20_m" class="logo_stars" data-name="star 20 m">
      <polygon class="cls-14" points="596.26 341.27 503.26 257.6 487.93 260.6 539.26 415.27 596.26 341.27"/>
      <polygon class="cls-15" points="629.59 387.93 595.26 377.27 594.59 351.93 629.59 387.93"/>
      <polygon class="cls-14" points="596.2 340.89 503.2 257.23 487.93 260.6 538.3 415.77 596.2 340.89"/>
      <polygon class="cls-16" points="540.26 358.27 488.59 262.6 493.26 259.27 572.93 367.93 540.26 358.27"/>
      <polygon class="cls-15" points="629.67 387.2 595.26 377.27 594.59 351.93 629.67 387.2"/>
      <path class="cls-17" d="M723,634.21l-27.61-10.88-.84-29.13c-.15-5.49-3.12-6.5-6.59-2.23l-18.28,22.49-28.86-8.59c-5.28-1.58-7.09.88-4,5.45l16.47,24.61L635.7,660.2c-3.22,4.46-1.5,7,3.82,5.56L668.78,658l18,24.34c3.28,4.42,6.21,3.54,6.51-2L695,650.24,722.77,641C728,639.29,728.08,636.22,723,634.21Z" transform="translate(-96.07 -248.73)"/>
    </g>
    <g id="star_19_m" class="logo_stars" data-name="star 19 m">
      <polygon class="cls-18" points="601.26 237.6 487.93 223.27 480.93 244.27 597.05 332.08 601.26 237.6"/>
      <polygon class="cls-19" points="482.26 239.6 484.43 233.77 596.26 271.6 563.26 283.27 482.26 239.6"/>
      <polygon class="cls-20" points="653.93 255.6 622.93 265.27 607.59 246.6 653.93 255.6"/>
      <path class="cls-21" d="M733.27,533.94l16.86-23.49c3.2-4.47,1.46-7-3.87-5.67L718,512l-17.51-23.06c-3.33-4.38-6.3-3.47-6.61,2l-1.61,28.76-28,9.72c-5.19,1.81-5.24,4.88-.09,6.83l27.35,10.34,0,29.76c0,5.5,2.86,6.52,6.34,2.26l18.89-23.15,28.45,9.22c5.23,1.69,7.1-.72,4.14-5.36Z" transform="translate(-96.07 -248.73)"/>
    </g>
    <g id="star_18_m" class="logo_stars" data-name="star 18 m">
      <polygon class="cls-4" points="515.09 47.8 477.93 221.27 509.93 237.27 598.76 132.27 515.09 47.8"/>
      <polygon class="cls-5" points="526.92 114.27 484.93 223.27 503.93 235.27 564.92 100.27 526.92 114.27"/>
      <polygon class="cls-5" points="632.05 70.77 595.42 117.27 589.92 84.52 632.05 70.77"/>
      <path class="cls-22" d="M723.79,312.4l-37-11.94-5.61-29.66c-1.33-7-5.39-7.73-9-1.57l-15.34,26-39.21-1.9c-7.14-.35-9,3.64-4.12,8.88l24.71,26.53L621.64,361c-3.27,6.36-.57,9.25,6,6.43l34.1-14.65,26.59,25.93c5.12,5,8.71,3.26,8-3.85l-3.74-36.44,32-16.15C730.94,319,730.6,314.6,723.79,312.4Z" transform="translate(-96.07 -248.73)"/>
    </g>
    <g id="star_17_m" class="logo_stars" data-name="star 17 m">
      <polygon class="cls-4" points="390.63 50.02 495.51 105.35 439.59 243.93 400.93 225.27 390.63 50.02"/>
      <polygon class="cls-5" points="421.93 113.27 409.93 236.27 421.93 234.27 452.93 87.27 421.93 113.27"/>
      <polygon class="cls-5" points="509.43 35.52 485.93 96.77 469.93 57.27 509.43 35.52"/>
      <path class="cls-23" d="M598.63,280.43l-36.87,1.67-15.35-28.63c-3.64-6.79-8.06-6.21-9.82,1.29l-7.41,31.45-36.64,7.58c-7.54,1.56-8.23,5.94-1.53,9.74l31,17.54-6.11,35c-1.32,7.59,2.38,9.7,8.24,4.7L551.88,337l32.61,16.45c6.88,3.46,10,.51,7-6.56L577.25,314l25.3-24.47C608.08,284.18,606.32,280.08,598.63,280.43Z" transform="translate(-96.07 -248.73)"/>
    </g>
    <g id="star_16_m" class="logo_stars" data-name="star 16 m">
      <polygon class="cls-5" points="320.26 134.6 357.93 209.27 395.93 218.77 397.93 82.27 320.26 134.6"/>
      <polygon class="cls-12" points="302.93 79.27 321.93 124.27 334.93 96.27 302.93 79.27"/>
      <polygon class="cls-12" points="349.93 116.27 379.43 218.27 388.93 214.77 381.93 141.27 349.93 116.27"/>
      <path class="cls-24" d="M490.87,329l-30.39-3.88-8.59-24.57c-1.82-5.19-5-5.27-7.08-.18l-9.77,24-31,2c-5.49.35-6.45,3.44-2.14,6.86l22.93,18.19L415.45,379c-1.77,5.21.61,7.11,5.29,4.23l25.53-15.71,24.36,17.49c4.47,3.2,7,1.47,5.64-3.86l-7.33-28.54L492.61,336C497.1,332.84,496.32,329.68,490.87,329Z" transform="translate(-96.07 -248.73)"/>
    </g>
    <g id="star_15_m" class="logo_stars" data-name="star 15 m">
      <polygon class="cls-18" points="113.67 181.02 166.68 225.27 221.59 252.6 172.39 103.56 113.67 181.02"/>
      <polygon class="cls-15" points="80.42 135.33 112.67 168.02 117.17 133.89 80.42 135.33"/>
      <polygon class="cls-15" points="135.76 150.93 202.93 230.27 209.43 227.27 169.76 159.1 135.76 150.93"/>
      <path class="cls-25" d="M250.14,381.18l17.09-24.37c3.16-4.5,1.37-7.12-4-5.82l-30.11,7.31-17.52-21.73c-3.45-4.28-6.46-3.28-6.69,2.21l-1.16,27.79-29.07,11.82c-5.1,2.07-5,5.22.2,7l28.49,9.73.5,30.13c.09,5.5,3,6.48,6.4,2.18l19.21-24.09,29.63,8.56c5.28,1.52,7.09-1,4-5.52Z" transform="translate(-96.07 -248.73)"/>
    </g>
    <g id="star_14_m" class="logo_stars" data-name="star 14 m">
      <polygon class="cls-18" points="113.03 191.28 208.93 248.27 214.93 297.6 109.59 280.6 113.03 191.28"/>
      <polygon class="cls-26" points="146.93 237.6 210.93 272.93 212.93 281.6 113.59 247.6 146.93 237.6"/>
      <path class="cls-27" d="M238.43,482.59,211.75,471.7l-.67-27.35c-.14-5.5-3.16-6.57-6.73-2.38l-17.63,20.72-27.9-8.76c-5.25-1.65-7,.74-4,5.31l15.77,23.57L153.7,505.22c-3.32,4.4-1.65,6.95,3.7,5.69l28.28-6.68L203,527.59c3.28,4.42,6.23,3.55,6.57-1.94l1.73-28.29,26.83-8.1C243.38,487.67,243.52,484.67,238.43,482.59Z" transform="translate(-96.07 -248.73)"/>
    </g>
    <g id="star_13_s" class="logo_stars" data-name="star 13 s">
      <polygon class="cls-18" points="120.26 320.6 188.93 285.6 199.59 280.27 203.59 285.6 137.26 368.27 120.93 320.27 120.26 320.6"/>
      <polygon class="cls-15" points="145.59 339.6 203.59 285.6 198.26 284.27 124.26 339.6 145.59 339.6"/>
      <polygon class="cls-19" points="95.92 339.27 118.26 324.27 119.59 342.27 95.92 339.27"/>
      <path class="cls-28" d="M240,585.57l-16.12-.24L218.27,571c-1.21-3.07-3.08-3-4.15.09l-5,14.59-15.46,1c-3.3.22-3.81,2-1.14,3.94L205,599.8,201.19,615c-.8,3.2.74,4.24,3.42,2.31l12.6-9.09,13.4,8.67c2.77,1.79,4.21.69,3.19-2.45l-4.89-15.11,12.42-9.91C243.91,587.35,243.32,585.62,240,585.57Z" transform="translate(-96.07 -248.73)"/>
    </g>
    <g id="star_12_s" class="logo_stars" data-name="star 12 s">
      <polygon class="cls-29" points="148.59 348.6 207.59 274.93 215.59 276.93 199.26 351.6 148.59 348.6"/>
      <polygon class="cls-30" points="174.59 332.27 207.59 274.93 210.26 275.6 180.26 348.93 174.59 332.27"/>
      <polygon class="cls-31" points="187.59 380.93 196.26 355.6 183.59 358.93 187.59 380.93"/>
      <path class="cls-32" d="M293.25,598.81l-16-1.68-4.34-14.73c-.93-3.17-2.79-3.3-4.14-.28l-6.29,14.08-15.5-.34c-3.3-.07-4,1.65-1.49,3.82l11.6,10.17-5.11,14.8c-1.08,3.12.36,4.29,3.2,2.61l13.37-7.94,12.58,9.83c2.6,2,4.12,1.06,3.39-2.15L281,611.52l13.26-8.77C297,600.92,296.53,599.15,293.25,598.81Z" transform="translate(-96.07 -248.73)"/>
    </g>
    <g id="star_11_s" class="logo_stars" data-name="star 11 s">
      <polygon class="cls-33" points="287.93 372.27 304.43 278.27 314.43 276.27 335.43 353.77 287.93 372.27"/>
      <polygon class="cls-34" points="303.93 346.02 306.93 278.77 309.43 278.27 317.68 360.02 303.93 346.02"/>
      <polygon class="cls-35" points="337.18 384.77 332.93 355.52 325.43 369.27 337.18 384.77"/>
      <path class="cls-36" d="M432.81,630.35,423,617.89l8.2-13.62c1.71-2.82.56-4.23-2.56-3.14l-15.2,5.37-10.24-11.44c-2.21-2.46-3.94-1.77-3.86,1.53l.36,15.42-14.14,6.35c-3,1.35-2.88,3.19.3,4.09l14.84,4.2,1.74,15.56c.37,3.28,2.17,3.72,4,1l8.66-12.91,15.58,3.48C433.89,634.48,434.86,633,432.81,630.35Z" transform="translate(-96.07 -248.73)"/>
    </g>
    <g id="star_10_s" class="logo_stars" data-name="star 10 s">
      <polygon class="cls-18" points="380.93 368.77 369.93 300.27 392.93 296.27 418.59 334.27 380.93 368.77"/>
      <polygon class="cls-19" points="387.26 338.27 373.93 303.27 380.93 303.27 403.43 344.27 387.26 338.27"/>
      <path class="cls-37" d="M526.79,608.59l-13.85-8.26,2.26-15.2c.48-3.26-1.16-4.16-3.64-2l-11.63,10.14L486,586.45c-3-1.45-4.3-.17-3,2.85l6.25,14.1-10.85,11.28c-2.29,2.38-1.48,4.05,1.81,3.71l15.46-1.58L503,631c1.51,2.94,3.3,2.7,4-.53l3.3-15.52L526,612.57C529.27,612.07,529.62,610.28,526.79,608.59Z" transform="translate(-96.07 -248.73)"/>
    </g>
    <g id="star_9_s" class="logo_stars" data-name="star 9 s">
      <polygon class="cls-29" points="547.26 347.27 479.43 275.27 488.43 269.27 559.26 295.27 547.26 347.27"/>
      <polygon class="cls-30" points="534.59 318.27 481.93 274.27 483.43 272.77 553.26 314.93 534.59 318.27"/>
      <polygon class="cls-38" points="586.42 311.77 559.59 300.6 561.92 314.27 586.42 311.77"/>
      <path class="cls-39" d="M681,559.35l-17,.9-7-14.65c-1.41-3-3.27-2.81-4.13.38l-4.23,15.72-16.22,2.21c-3.27.44-3.66,2.25-.87,4l13.78,8.68-2.88,16.27c-.58,3.25,1,4.18,3.57,2.08l12.62-10.49,14.73,8.17c2.89,1.6,4.24.4,3-2.66l-6.23-15.55,12.37-11.33C685,560.86,684.26,559.18,681,559.35Z" transform="translate(-96.07 -248.73)"/>
    </g>
    <g id="star_8_s" class="logo_stars" data-name="star 8 s">
      <polygon class="cls-18" points="570.42 151.77 554.92 171.77 513.42 222.77 533.92 228.27 588.93 200.6 570.42 151.77"/>
      <polygon class="cls-40" points="560.42 181.77 521.42 223.77 523.42 225.27 579.92 183.27 560.42 181.77"/>
      <polygon class="cls-41" points="613.93 181.6 589.42 197.27 589.92 183.77 596.92 178.77 613.93 181.6"/>
      <path class="cls-42" d="M708.91,427.53,696.2,418l4.43-15.26c.92-3.17-.56-4.24-3.28-2.38L684,409.47l-12.84-8.42c-2.76-1.81-4.26-.7-3.34,2.47l4.32,14.8-12,9.78c-2.56,2.08-2,3.82,1.34,3.87l15.43.25,5.68,14.58c1.2,3.08,3,3,4.13-.08l5-14.7,16-.65C711,431.24,711.55,429.51,708.91,427.53Z" transform="translate(-96.07 -248.73)"/>
    </g>
    <g id="star_7_s" class="logo_stars" data-name="star 7 s">
      <polygon class="cls-29" points="511.01 168.18 487.01 233.68 502.43 237.27 561.42 173.77 511.01 168.18"/>
      <polygon class="cls-30" points="528.92 173.77 502.43 227.77 507.93 229.27 535.26 188.27 528.92 173.77"/>
      <path class="cls-43" d="M657.14,419.82l-11.44-11L652,394.21c1.3-3,0-4.28-3-2.76l-14.32,7.4L623,388.91c-2.51-2.13-4.14-1.21-3.61,2l2.47,15.22-13.14,8.23c-2.8,1.75-2.41,3.55.85,4l15.28,2.13,3.86,15.17c.81,3.2,2.66,3.39,4.1.43l6.82-14,15.91,1.31C658.78,423.76,659.52,422.11,657.14,419.82Z" transform="translate(-96.07 -248.73)"/>
    </g>
    <g id="star_6_s" class="logo_stars" data-name="star 6 s">
      <polygon class="cls-33" points="374.93 167.6 392.93 231.27 406.93 231.27 423.93 148.77 374.93 167.6"/>
      <polygon class="cls-34" points="392.93 160.27 397.93 225.77 402.93 225.27 407.26 174.6 392.93 160.27"/>
      <polygon class="cls-35" points="370.93 137.6 375.93 166.77 387.43 150.77 370.93 137.6"/>
      <path class="cls-44" d="M518,395.17,501.76,391l-2.56-15.41c-.54-3.25-2.45-3.65-4.25-.88l-8.45,13-16.76-2.88c-3.25-.55-4.11,1-1.9,3.45l10.94,12.18-7.9,13.93c-1.63,2.87-.43,4.27,2.66,3.11l15.72-5.92,11.82,11.95c2.32,2.35,4,1.58,3.75-1.71l-1.26-16.12,14.76-6.61C521.34,397.77,521.19,396,518,395.17Z" transform="translate(-96.07 -248.73)"/>
    </g>
    <g id="star_27_s_notrail" class="logo_stars" data-name="star 27 s notrail">
      <path class="cls-45" d="M401.33,459.22l-24.11-5.55-4.34-23.37c-.6-3.25-2.49-3.59-4.19-.76L356.5,449.81l-24.82-3.56c-3.27-.47-4.1,1.13-1.86,3.55l16.63,17.93L335.14,489.3c-1.53,2.92-.29,4.27,2.75,3L361,482.63l17.87,17.51c2.35,2.3,4,1.51,3.69-1.78l-2.41-24.44,21.7-10.69C404.76,461.77,404.55,460,401.33,459.22Z" transform="translate(-96.07 -248.73)"/>
    </g>
    <g id="star_4_s" class="logo_stars" data-name="star 4 s">
      <polygon class="cls-18" points="330.26 151.6 335.59 192.93 350.93 240.27 331.59 239.6 291.26 186.27 330.26 151.6"/>
      <polygon class="cls-46" points="324.3 182.33 340.93 228.93 336.26 230.27 305.99 173.89 324.3 182.33"/>
      <polygon class="cls-47" points="276.93 157.77 291.43 181.77 297.43 165.77 276.93 157.77"/>
      <path class="cls-48" d="M423.66,398.2l-16.43,1.57-7.6-13.67c-1.61-2.89-3.52-2.61-4.25.6l-3.44,15.17-16.49,3c-3.25.59-3.53,2.36-.63,3.93l14.26,7.76-2.63,15.84c-.54,3.26,1.06,4.15,3.56,2l12.57-10.89,15,7.24c3,1.44,4.29.15,2.94-2.86l-6.63-14.79,11.46-11.23C427.71,399.52,427,397.89,423.66,398.2Z" transform="translate(-96.07 -248.73)"/>
    </g>
    <g id="star_5_s" class="logo_stars" data-name="star 5 s">
      <polygon class="cls-49" points="319.59 190.27 334.26 215.6 344.93 202.93 319.59 190.27"/>
      <polygon class="cls-49" points="373.26 183.27 383.59 238.27 359.59 250.27 334.93 218.77 373.26 183.27"/>
      <polygon class="cls-50" points="365.93 215.27 380.26 243.6 371.59 248.93 349.59 207.6 365.93 215.27"/>
      <polygon class="cls-49" points="319.78 190.07 334.45 215.4 345.12 202.74 319.78 190.07"/>
      <path class="cls-51" d="M466.73,430.8l-17,1.29-7.38-14.26c-1.52-2.93-3.39-2.7-4.17.5l-3.75,15.57-16.17,2.57c-3.26.52-3.59,2.31-.75,4l14.05,8.25-2.38,16.08c-.49,3.26,1.16,4.16,3.65,2l12.29-10.64,15,7.71c2.93,1.51,4.25.28,2.92-2.74L456.37,446l12-11.47C470.76,432.2,470,430.54,466.73,430.8Z" transform="translate(-96.07 -248.73)"/>
    </g>
    <g id="star_3_s" class="logo_stars" data-name="star 3 s">
      <polygon class="cls-52" points="300.18 200.77 318.26 256.93 301.59 266.27 274.26 237.6 300.18 200.77"/>
      <polygon class="cls-53" points="299.37 225.13 320.93 256.08 313.16 260.27 281.26 217.6 299.37 225.13"/>
      <polygon class="cls-30" points="260.43 213.52 272.93 232.27 276.26 218.93 260.43 213.52"/>
      <path class="cls-54" d="M388.23,462.07l7.53-10.56c1.6-2.24.73-3.49-1.92-2.78l-12.65,3.38-7.56-10c-1.66-2.19-3.14-1.74-3.29,1l-.71,12.59L357.78,460c-2.59.93-2.6,2.48,0,3.44l11.74,4.38.4,12.8c.09,2.75,1.55,3.24,3.26,1.08l7.85-10,12.38,3.84c2.63.82,3.53-.39,2-2.68Z" transform="translate(-96.07 -248.73)"/>
    </g>
    <g id="star_2_s" class="logo_stars" data-name="star 2 s">
      <polygon class="cls-55" points="125.42 206.77 149.93 217.77 150.93 199.27 125.42 206.77"/>
      <polygon class="cls-29" points="152.26 222.6 223.59 252.27 229.59 244.27 165.59 172.93 152.26 222.6"/>
      <polygon class="cls-30" points="177.24 202.15 225.26 242.85 225.26 246.99 155.59 205.6 177.24 202.15"/>
      <path class="cls-56" d="M271.88,448.34l-13.19-9,3.78-15.31c.79-3.2-.72-4.19-3.35-2.2l-12.94,9.79-13.42-7.53c-2.88-1.61-4.36-.38-3.29,2.74l5,14.48-12.26,11c-2.45,2.2-1.77,3.86,1.53,3.68l15.94-.86,6,14.62c1.25,3.05,3.08,3,4.07-.18L254.59,454l16.29-1.67C274.16,452,274.61,450.19,271.88,448.34Z" transform="translate(-96.07 -248.73)"/>
    </g>
    <g id="star_1_s" class="logo_stars" data-name="star 1 s">
      <polygon class="cls-41" points="96.26 267.6 124.93 262.27 116.26 274.27 96.26 267.6"/>
      <polygon class="cls-18" points="126.93 258.27 202.26 250.27 211.59 256.93 126.26 310.93 126.93 258.27"/>
      <polygon class="cls-15" points="146.93 284.93 211.59 256.93 206.93 255.6 128.26 277.6 146.93 284.93"/>
      <path class="cls-57" d="M241.18,532.29l-16.46-6.49-.25-16.88c-.05-3.3-1.81-3.92-3.92-1.38l-10.8,13.05-16.31-4.92c-3.16-1-4.26.52-2.46,3.28l9.29,14.18-9.77,14.15c-1.87,2.72-.8,4.24,2.39,3.37l16.48-4.46,10.4,14.1c2,2.66,3.7,2.13,3.85-1.16l.83-17.41,16.6-5.38C244.19,535.33,244.25,533.5,241.18,532.29Z" transform="translate(-96.07 -248.73)"/>
    </g>
    <g id="star_26_s_notrail" class="logo_stars" data-name="star 26 s notrail">
      <path class="cls-58" d="M483.79,576.57l-13.85-8.25,2.24-15.2c.48-3.26-1.16-4.16-3.64-2l-11.62,10.15L443,554.46c-3-1.44-4.29-.16-2.95,2.85l6.26,14.1L435.46,582.7c-2.29,2.38-1.47,4,1.81,3.71l15.46-1.6L460,599c1.5,2.94,3.3,2.7,4-.53L467.3,583,483,580.54C486.28,580,486.63,578.25,483.79,576.57Z" transform="translate(-96.07 -248.73)"/>
    </g>
    <g id="flare" filter="url(#blurless)">
      <polygon id="flare_bottom" class="cls-59" points="290.1 414.73 327.32 415.61 289 411.7 317.68 385.77 286.24 409.85 286.93 380.77 283.82 407.61 251.57 373.86 281.37 411.2 245.2 411.53 280.87 414.4 251.93 441.77 283.25 416.65 282.89 450.59 285.82 416.63 316.43 449.52 290.1 414.73"/>
      <polygon id="flare_top" class="cls-59" points="534.1 116.73 571.33 117.61 533 113.7 561.67 87.77 530.24 111.85 530.92 82.77 527.82 109.61 495.57 75.86 525.36 113.2 489.2 113.53 524.87 116.4 495.93 143.77 527.25 118.65 526.89 152.59 529.82 118.63 560.42 151.52 534.1 116.73"/>
    </g>
    <g id="ytmnd_logo" data-name="ytmnd logo">
      <g id="ytmnd_grey_gradient">
        <g>
          <path class="cls-60" d="M222,492h0c-2,.27-4.82.83-9,1.74-2.23.51-5.27,1-9.13,1.57s-6.92.88-9.11,1l-.2,0c-6,.43-8,.65-9.13.81a21.29,21.29,0,0,0-9.21,3.48,22.55,22.55,0,0,0-10-.78l-3.44.62c-10.73,2.26-19.6,3.88-26.44,4.84a83.61,83.61,0,0,1-9.84.94h-.35c-5.11.2-8.61.45-11,.78a21.75,21.75,0,0,0-15.32,9.45,22.84,22.84,0,0,0-3.75,12.81,28.68,28.68,0,0,0,.28,3.92,22.57,22.57,0,0,0,7.25,13.93l.14.12.15.12c2.64,2.24,5.84,3.5,10.26,4.79.71,1,2.13,3.11,5,7.39l32.12,49.58.88,1.36-.72-.17a27,27,0,0,0-9.94-.46,28.47,28.47,0,0,0-20.76,13.72l-.08.12a34.07,34.07,0,0,0-4.88,17.75,38.06,38.06,0,0,0,.37,5.29,31.19,31.19,0,0,0,10.49,19.76,31.8,31.8,0,0,0,26,7.43,47.2,47.2,0,0,0,17.07-6.07A64.23,64.23,0,0,0,188,651.94a126.2,126.2,0,0,0,12.58-20.37,145.62,145.62,0,0,0,9.36-23l18-58.42c2.1-7,3.38-11.22,4.18-13.71l1.53-.71a20.24,20.24,0,0,0,10-9.89l.1-.21.09-.21a24.59,24.59,0,0,0,1.91-9.83,33.87,33.87,0,0,0-.34-4.73c-1.16-8.24-5.16-12.8-8.31-15.17A20.22,20.22,0,0,0,222,492ZM187.53,509.5l.09.15-.05-.07A.3.3,0,0,0,187.53,509.5Zm3.32,19.74-.08.39a2.17,2.17,0,0,1,0-.25S190.84,529.29,190.85,529.24Zm-76,23.1.19,0-.18,0Z" transform="translate(-96.07 -248.73)"/>
          <path class="cls-61" d="M273.63,461.74h0A23,23,0,0,0,262.12,467c-30.34,25.14-37.64,31.82-40.49,34.65l-.11.11a23.83,23.83,0,0,0-7.06,16.9,26.09,26.09,0,0,0,.25,3.5c1.68,11.91,8.74,16.38,12.88,18,.12.84,4.2,29.82,4.2,29.82,1.16,8.3,2.26,14.53,3.33,19a41.86,41.86,0,0,0,14.53,23.31c10.16,8.28,23.64,11.31,40.06,9,13.43-1.88,24.63-6.86,33.28-14.77,11.67-10.73,12.92-21.45,11.92-28.56-1.1-7.83-5-12.25-8.1-14.57a20.27,20.27,0,0,0-15.43-3.71,39.49,39.49,0,0,0-5.31,1.17c-.44-1.89-1-4.7-1.58-8.92,0,0-2.12-15.08-2.5-17.8,12.26-2.26,17-9.6,18.67-13.92a34.53,34.53,0,0,0,2.42-12.88,41,41,0,0,0-.4-5.58c-2.31-16.39-14.33-22.18-25.23-20.65-.61.09-1.25.24-1.88.37,0-.29-.12-1-.12-1-.95-6.78-3.7-11.91-8.15-15.27A18.26,18.26,0,0,0,273.63,461.74Z" transform="translate(-96.07 -248.73)"/>
          <path class="cls-62" d="M461.46,456.28h0a76.41,76.41,0,0,0-21,6.57A81.45,81.45,0,0,0,425,471.92c-1.75-.88-3.7-1.75-5.94-2.61A52.35,52.35,0,0,0,392.65,466a65.48,65.48,0,0,0-22.75,8A21.2,21.2,0,0,0,352.84,469a39.76,39.76,0,0,0-5.52,1.23l-.28.08a142.35,142.35,0,0,0-42.82,21.35c-6.84,5.13-10.56,12.24-10.56,19.91a24.37,24.37,0,0,0,.24,3.39c1.06,7.51,4.92,13.52,10.88,17a22.84,22.84,0,0,0,3.33,1.58c0,.08,0,.13,0,.22s3.32,23.63,3.34,23.79c1,7.29,1.31,11.25,1.43,13.35-3.53,3-5.81,5.92-7.12,9.16a23.08,23.08,0,0,0-1.72,8.94,29,29,0,0,0,.3,4.1c2,14.16,12.86,22.33,27.05,20.34l2.31-.33.46-.09c10-2.06,17.53-3.45,22.37-4.13,4.45-.62,8.4-1.06,11.72-1.28,9.19-.68,10.1-.77,10.91-.89a23.15,23.15,0,0,0,11.25-4.76,22.31,22.31,0,0,0,12.14,1.47l2.1-.29.59-.13c8-1.76,14.54-3,19.5-3.71s9.16-1.16,12.65-1.41c9.75-.73,10.36-.81,11.05-.91a23.19,23.19,0,0,0,11.45-4.69,22.31,22.31,0,0,0,11.95,1.4l2.05-.29.53-.12c8-1.77,14.33-3,18.75-3.6,4.64-.65,9.2-1.16,13.55-1.53,11.76-1,12.42-1.11,13.06-1.2,5.9-.83,10.43-2.76,13.85-5.91,2.73-2.48,7-7.79,7-16.71a31.42,31.42,0,0,0-.31-4.3,25.42,25.42,0,0,0-4.83-12.1l-.2-.26-.22-.26a24.92,24.92,0,0,0-9-6.41c-.47-2-1.27-5.83-2.38-13.31l-3-21.35c-2-14.26-7-26.09-14.73-35.16a43,43,0,0,0-20.21-13A54.81,54.81,0,0,0,461.46,456.28ZM310.75,534.49l.2.07-.19-.07Zm213.43,5.64.15.06,0,0ZM314.1,569.85l.33-.27c-.15.12-.25.23-.39.34Zm63.9.94c0,.06,0,.13,0,.19s-.09.23-.12.34Z" transform="translate(-96.07 -248.73)"/>
          <path class="cls-63" d="M599,437h0a64.56,64.56,0,0,0-23.84,8.61,18,18,0,0,0-1.68-1.47,20.86,20.86,0,0,0-15.7-3.87,41.89,41.89,0,0,0-5.53,1.21l-.19.06-.19.06a143.89,143.89,0,0,0-43,21.34c-6.87,5.15-10.6,12.27-10.6,19.95a24.33,24.33,0,0,0,.24,3.38c1.06,7.52,4.92,13.53,10.88,17a22.37,22.37,0,0,0,3.33,1.57c0,.08,0,.14,0,.22s3.32,23.64,3.34,23.8c1,7.29,1.31,11.24,1.43,13.34-3.53,3-5.81,5.92-7.12,9.16a23.08,23.08,0,0,0-1.72,8.94,30.54,30.54,0,0,0,.29,4.1c1.23,8.72,5.55,13.61,9,16.18s9.35,5.39,18.14,4.15l2.3-.32.47-.1c10-2.05,17.29-3.41,21.69-4s8.74-1.1,13.05-1.45c11.55-1,11.93-1,12.56-1.14a22.76,22.76,0,0,0,10.07-3.84,22.81,22.81,0,0,0,10.72.92l2-.29.44-.09c10-2,17.27-3.41,21.71-4s8.86-1.12,13.09-1.47c11-.94,12.07-1.06,12.86-1.17,5.68-.8,10.12-2.65,13.56-5.66l.2-.17a22,22,0,0,0,7-16.79,31.17,31.17,0,0,0-.31-4.29,25.41,25.41,0,0,0-4.83-12.11c-2.13-2.8-5.16-5-9.46-6.94-.47-1.91-1.26-5.77-2.38-13.3L658.06,488a90.29,90.29,0,0,0-4.36-18.14c-4.56-12.83-12.42-22.13-23.34-27.54A52.73,52.73,0,0,0,599,437Zm-83.61,68.77.21.07-.2-.06Zm145.93,15,.53.22.08,0C661.69,521,661.52,520.85,661.29,520.77ZM518.71,541.08l.33-.26c-.15.11-.25.22-.39.33Z" transform="translate(-96.07 -248.73)"/>
          <path class="cls-64" d="M749.26,379.21a40.31,40.31,0,0,0-6.22,1.46,135,135,0,0,0-43.38,21.41l-.12.09c-6.65,5.13-10.28,12.3-10.28,20.07,0,.68.09,1.37.15,2.06a55.13,55.13,0,0,0-21.19,8.29,56.39,56.39,0,0,0-18.74,19.48,73.81,73.81,0,0,0-8.32,24.52A89.27,89.27,0,0,0,640,491.12a87.38,87.38,0,0,0,.83,12c2.55,18.1,9.85,33.27,21.71,45.11a52.59,52.59,0,0,0,19.6,12.29,48.43,48.43,0,0,0,23,2.37A43.25,43.25,0,0,0,723.66,556c.63-.44,1.27-.93,1.9-1.41a21.08,21.08,0,0,0,15.19,3.35c6.43-.91,15.1-4.3,28.11-11,18.79-9.85,24.8-14.74,28.06-19.08a21.75,21.75,0,0,0,4.25-13.32,27.92,27.92,0,0,0-.28-4c-1.95-13.83-10.61-18.12-14.69-19.39-.34-1.8-.76-4.31-1.25-7.77l-11.7-83.25a34.67,34.67,0,0,0-2.26-9.23l-.08-.18C767.08,382.27,758.79,377.87,749.26,379.21Zm-32.68,46.25.08,0,.14,0ZM706.3,444.77l.22.09-.2-.07S706.3,444.77,706.3,444.77Zm14.29,104.69a.39.39,0,0,1,.08.1l.05.09Z" transform="translate(-96.07 -248.73)"/>
        </g>
      </g>
      <g id="ytmnd_white">
        <g>
          <path class="cls-59" d="M223.26,500.88h0c-1.7.24-4.43.77-8.34,1.63-2.41.54-5.69,1.1-9.79,1.68s-7.42.94-9.85,1.08c-5.91.42-7.73.63-8.6.76a11.5,11.5,0,0,0-7.91,4.38,9.83,9.83,0,0,0-.84,1.35,12.16,12.16,0,0,0-10.44-3l-2.89.53c-10.88,2.29-20,4-27,4.94a94,94,0,0,1-11,1h-.14c-4.73.18-8,.41-10.11.7a12.72,12.72,0,0,0-9.09,5.52,13.84,13.84,0,0,0-2.23,7.79,19.53,19.53,0,0,0,.2,2.7,13.43,13.43,0,0,0,4.31,8.45l.11.1c1.17,1,2.88,1.88,7.77,3.27a5.92,5.92,0,0,1,3.23,2.07c.61.82,2.09,2.94,6,8.79l32.06,49.51c3.39,5.15,3.84,6.78,3.88,7,0,0,.11,1.68-2.79,5.84a20.73,20.73,0,0,1-4.2,5l-.26-.12c-3.85-2.09-4.93-2.53-6.08-2.73l.43.09a17.82,17.82,0,0,0-7-.36,19.73,19.73,0,0,0-14.37,9.53A25.41,25.41,0,0,0,125,645.46a22,22,0,0,0,7.47,14.22A23,23,0,0,0,151.37,665a38.26,38.26,0,0,0,13.81-5,54.93,54.93,0,0,0,15.7-13.63,116.51,116.51,0,0,0,11.66-18.9,136.13,136.13,0,0,0,8.78-21.57l18-58.33q3.82-12.81,5.1-16.57a4.69,4.69,0,0,1,2.44-2.1l3-1.4a11.37,11.37,0,0,0,5.64-5.55l.07-.17a15.31,15.31,0,0,0,1.18-6.2,26,26,0,0,0-.26-3.52c-.59-4.17-2.21-7.28-4.81-9.24A11.1,11.1,0,0,0,223.26,500.88ZM182,527.41l0,.15a.17.17,0,0,0,0-.07Zm-1.19,2.92a11.38,11.38,0,0,0,5.6,3.16l1.34.32a12.52,12.52,0,0,1-.22,1.38l-2.8,13.91-6.51-13.51c-.27-.6-.45-1.07-.58-1.45A16.37,16.37,0,0,0,180.85,530.33Z" transform="translate(-96.07 -248.73)"/>
          <path class="cls-59" d="M274.88,470.65h0a14.1,14.1,0,0,0-7,3.27C245.29,492.61,232.25,503.75,228,508a14.84,14.84,0,0,0-4.36,12.87c1.07,7.57,4.92,10.23,8,11.12l-.13,0a17.13,17.13,0,0,1,3.44,1.35,6.65,6.65,0,0,1,1.35,3.69l4.46,31.71c1.13,8,2.17,14,3.18,18.2a33.05,33.05,0,0,0,11.46,18.43c8.14,6.63,19.28,9,33.12,7.06,11.6-1.63,21.17-5.84,28.45-12.5,7-6.48,10.1-13.43,9.09-20.66-.54-3.84-2.09-6.75-4.6-8.64a11.46,11.46,0,0,0-8.77-2,31.73,31.73,0,0,0-4.47,1,29.6,29.6,0,0,1-4.1.95c-3,.42-4-.41-5-2.1-.57-1-2-4.41-3.52-15.26l-2.73-19.42a49.64,49.64,0,0,1-.5-6.21c0-.38,0-.69,0-.94a13.16,13.16,0,0,1,1.84-.38l5-.71c8.46-1.19,11.76-5.33,13-8.6a25.92,25.92,0,0,0,1.79-9.63,31.59,31.59,0,0,0-.3-4.29c-1.54-10.93-8.79-13.88-15.07-13a25.16,25.16,0,0,0-5,1.29l.15-.05-4.42,1.44a12.81,12.81,0,0,1-1.56.33c-.06-.3-.12-.63-.18-1l-.53-4.62-.66-5.64c-.62-4.39-2.14-7.45-4.66-9.34A9.26,9.26,0,0,0,274.88,470.65Z" transform="translate(-96.07 -248.73)"/>
          <path class="cls-59" d="M462.71,465.2h0A68.28,68.28,0,0,0,444.19,471a66.82,66.82,0,0,0-16.51,10.23c-.83.72-1.43,1.2-1.92,1.59-.5-.31-1.11-.68-1.95-1.26l-.13-.09a48.73,48.73,0,0,0-29.77-6.64c-8.73,1.23-17.63,5-26.48,11.23a11.36,11.36,0,0,0-3.08-5.13l-.09-.07a12.22,12.22,0,0,0-10.17-3,30.75,30.75,0,0,0-4.26,1l-.12,0a133.66,133.66,0,0,0-40.12,20c-4.53,3.39-6.93,7.84-6.93,12.7a15.47,15.47,0,0,0,.15,2.13c.84,6,3.94,9,6.44,10.4a23.67,23.67,0,0,0,4.61,1.9,3.86,3.86,0,0,1,1.42.77l.08.12a14.28,14.28,0,0,1,1.7,5.55l3.36,23.88C321.7,566,322,570.5,322,572.53a5.28,5.28,0,0,1-2.13,4.24l.14-.11c-3.19,2.51-5,4.6-5.87,6.78a14.29,14.29,0,0,0-1,5.55,20.12,20.12,0,0,0,.21,2.84c1.28,9.1,7.75,14,16.89,12.67l2-.28.19,0c10.18-2.09,17.9-3.51,22.93-4.22,4.66-.66,8.82-1.11,12.36-1.35,8.6-.63,9.71-.74,10.26-.82,4.59-.65,9.07-3.37,10.68-8.85a12.07,12.07,0,0,0,2.93,3.33,12.77,12.77,0,0,0,9.79,2.23l1.77-.25.23,0c8.2-1.81,15-3.1,20.18-3.83s9.58-1.22,13.28-1.48c8.7-.65,9.93-.77,10.44-.84,3.59-.51,6.36-1.79,8.23-3.81l.07-.08.08-.09a12,12,0,0,0,2.41-4.72,12.23,12.23,0,0,0,2.84,3.18,12.76,12.76,0,0,0,9.76,2.23l1.68-.24.22,0c8.25-1.82,14.78-3.07,19.43-3.72,4.81-.68,9.54-1.21,14.06-1.58,10.6-.93,12-1.08,12.55-1.15,4-.57,7-1.75,9-3.63,2.29-2.07,4.82-6,3.83-13.12a16.66,16.66,0,0,0-3.07-7.89l-.08-.1-.08-.11c-1.48-1.75-3.77-3.21-7.43-4.72a4.7,4.7,0,0,1-2.92-3.34c-.62-2-1.63-6.36-3.08-16.12l-3-21.42c-1.76-12.53-6-22.81-12.65-30.55A34.08,34.08,0,0,0,483,466.74,45.66,45.66,0,0,0,462.71,465.2ZM374.28,515a9.3,9.3,0,0,1,6.75,1.66c3,2,4.77,5.55,5.49,10.7l2.72,19.33c1.36,10.21,1.66,14.53,1.67,16.35a8.8,8.8,0,0,1-1.35,5.11l.08-.12a22.05,22.05,0,0,0-3.11,5.68c0,.09,0,.19-.07.28a15,15,0,0,0-2.85-3.44,15.58,15.58,0,0,1-3.76-4.15c-.23-.53-1.31-3.59-3.49-18l-3.49-24.79a55.62,55.62,0,0,1-.68-7.36c0-.33,0-.57,0-.73A6.32,6.32,0,0,1,374.28,515Zm67-9a4.75,4.75,0,0,1,2.37-.75,9.18,9.18,0,0,1,6.34,1.44c3.16,2,5.09,5.58,5.84,10.92l2.72,19.34c1.44,10.76,1.67,15.08,1.67,16.73,0,.53,0,.79,0,.9l0,.22c-.05.43-.36,2.06-2.49,5.38a16.12,16.12,0,0,0-1.84,4.17,14.37,14.37,0,0,0-3.14-3.66l.09.07a17.32,17.32,0,0,1-3.87-4.15c-.25-.6-1.35-3.79-3.49-17.89l-3-21.39a107.63,107.63,0,0,1-1.15-11.19V506S441.28,506,441.29,506Z" transform="translate(-96.07 -248.73)"/>
          <path class="cls-59" d="M600.23,445.86h0c-9.42,1.33-18.76,5.47-27.79,12.33a12.8,12.8,0,0,0-4.44-6.94,11.72,11.72,0,0,0-9-2.12,33.56,33.56,0,0,0-4.33,1l-.16.05a134.89,134.89,0,0,0-40.29,20c-4.54,3.4-7,7.85-7,12.72a15.44,15.44,0,0,0,.15,2.12c.84,6,3.95,9,6.45,10.41a24.15,24.15,0,0,0,4.6,1.9,3.76,3.76,0,0,1,1.42.76l.07.13a14,14,0,0,1,1.71,5.55L525,527.59c1.28,9.68,1.56,14.14,1.56,16.17a5.26,5.26,0,0,1-2.13,4.24l.14-.11c-3.19,2.51-5,4.6-5.87,6.78a14.29,14.29,0,0,0-1,5.55,20.12,20.12,0,0,0,.21,2.84c.63,4.55,2.47,8,5.46,10.24s6.86,3.08,11.47,2.43l2-.28.19,0c10.18-2.09,17.66-3.48,22.25-4.13s9.07-1.14,13.56-1.51c10.47-.9,11.6-1,12-1.08a12.94,12.94,0,0,0,8.9-4.89,12,12,0,0,0,.88-1.42,11.06,11.06,0,0,0,1.21,1.16,12.79,12.79,0,0,0,9.8,2.23l1.75-.25.17,0c10.16-2.09,17.65-3.48,22.28-4.13s9.2-1.17,13.61-1.53c9.5-.81,11.66-1,12.32-1.11,3.91-.55,6.83-1.7,8.92-3.52,2.39-2.16,4.93-6.15,3.94-13.23a16.66,16.66,0,0,0-3.07-7.89c-1.43-1.88-3.79-3.41-7.65-5l.21.08a5,5,0,0,1-3.07-3.42c-.62-2-1.62-6.27-3.08-16.1l-2.87-20.45a81.53,81.53,0,0,0-3.91-16.32c-3.77-10.61-10.13-18.21-18.88-22.55A43.91,43.91,0,0,0,600.23,445.86Zm-20.35,40.23a9.25,9.25,0,0,1,3.8.25,9.43,9.43,0,0,1,5.13,3.13c2.48,3.2,4.21,8.2,5.15,14.82l1.87,13.35c1.34,10.07,1.64,14.46,1.65,16.35v0a5.27,5.27,0,0,1-1.6,4.18,22.88,22.88,0,0,0-3.94,4.61,21.44,21.44,0,0,0-5.21-3.43l.12.06a5.23,5.23,0,0,1-2.7-3.57c-.69-2.75-1.68-8.23-2.94-16.29l-2.87-20.41A86.7,86.7,0,0,1,577.27,488a7.93,7.93,0,0,1,.05-1.09A4.68,4.68,0,0,1,579.88,486.09Z" transform="translate(-96.07 -248.73)"/>
          <path class="cls-59" d="M750.52,388.12a30.72,30.72,0,0,0-4.86,1.16,125.59,125.59,0,0,0-40.57,20c-5.42,4.18-6.84,9-6.84,12.92a17.34,17.34,0,0,0,.17,2.36,14.17,14.17,0,0,0,3.47,7.61c.14.15.32.29.48.43a57.83,57.83,0,0,0-10.54.4,46,46,0,0,0-18.71,7.15,47.44,47.44,0,0,0-15.81,16.38A64.7,64.7,0,0,0,650,478.05a79.1,79.1,0,0,0-.32,23.83c2.26,16.11,8.7,29.57,19.15,40A43.48,43.48,0,0,0,685.1,552,39.43,39.43,0,0,0,703.87,554a34.14,34.14,0,0,0,14.71-5.47,58.58,58.58,0,0,0,8.2-6.92,10.45,10.45,0,0,0,1.36,3c1.33,2,4.66,5.37,11.36,4.42,5.31-.74,13.32-4,25.23-10.09,18.42-9.66,23-13.89,25-16.5,2.09-2.78,2.85-6.35,2.25-10.62-1.17-8.31-5.36-11.17-8.67-12.11l-1.54-.47-3.12-.94c-.45-1.32-1.37-4.82-2.61-13.63l-11.71-83.26c-.59-4.24-1.15-5.89-1.58-6.86C760.57,389.7,756,387.35,750.52,388.12ZM714,501.06h0a38.48,38.48,0,0,1-7.2-17.07,30.63,30.63,0,0,1,1.14-14.35,9.6,9.6,0,0,1,2.5-3.87,5,5,0,0,1,2.64-1.44c1.77-.25,2,0,2.5,1.51l.05.15a56.9,56.9,0,0,1,1.3,7.41s2.85,20.3,2.89,20.56c.91,9.43,1,11.57,1,12v0a.53.53,0,0,1-.15.27,1.31,1.31,0,0,1-.19.18C719.31,506.62,717,505.29,714,501.06Z" transform="translate(-96.07 -248.73)"/>
        </g>
      </g>
      <g id="ytmnd_text">
        <path class="cls-65" d="M163.75,600.85l-32.09-49.56q-4.78-7.21-6.11-9A12,12,0,0,0,119.1,538q-4.63-1.32-5.54-2.08a7.53,7.53,0,0,1-2.35-4.8,8.88,8.88,0,0,1,1.09-6.32,6.71,6.71,0,0,1,4.93-2.91q2.8-.39,9.5-.65a97.42,97.42,0,0,0,11.71-1.07q10.76-1.51,27.38-5c1.08-.22,1.92-.37,2.5-.45q4.45-.63,6.41,2.64a15,15,0,0,1,1.42,5.23,10.26,10.26,0,0,1,0,3.65c-.24,1.15-1.28,2.52-3.13,4.09a4,4,0,0,0-1.6,3.58,16.75,16.75,0,0,0,1.38,4.25L183,559.17q1.78,3.6,2.43,4a1.66,1.66,0,0,0,1.24.41q1.35-.18,2.41-5.28l4.4-21.87a15.66,15.66,0,0,0,.32-5.38c-.16-1.16-1-2-2.62-2.6-.27-.09-1.39-.37-3.34-.82q-4.26-1-5.21-7.77-1-7.07,4.93-7.9c1.23-.18,3.93-.41,8.11-.71,2.61-.15,6.06-.53,10.33-1.13s7.68-1.19,10.24-1.76q5.56-1.22,7.89-1.55,5.53-.78,6.5,6.12a12.16,12.16,0,0,1-.47,6.49,5.38,5.38,0,0,1-2.72,2.66l-3.08,1.42a10.57,10.57,0,0,0-5.44,5.22q-1.26,3.63-5.28,17.11l-18,58.36a128.94,128.94,0,0,1-8.4,20.6,110.75,110.75,0,0,1-11,17.93,49.18,49.18,0,0,1-14,12.12,32.38,32.38,0,0,1-11.64,4.2,16.93,16.93,0,0,1-14.16-3.94A16.16,16.16,0,0,1,131,644.62a19.46,19.46,0,0,1,2.48-13.18,13.66,13.66,0,0,1,10.1-6.75,12,12,0,0,1,4.67.23,28.12,28.12,0,0,1,4.24,2.08,6.46,6.46,0,0,0,4.07.91q3.39-.48,8.21-7.57,4.35-6.23,3.79-10.2Q168.16,607.53,163.75,600.85Z" transform="translate(-96.07 -248.73)"/>
        <path class="cls-66" d="M246.64,567.86l-3.29-23.38c-.1-.71-.29-2.06-.57-4.07q-.32-2.22-.6-4.26c-.48-3.42-1.65-5.93-3.5-7.51a18,18,0,0,0-5.41-2.4q-3-.87-3.7-6.2a8.85,8.85,0,0,1,2.64-7.79q6.14-6.09,39.45-33.7a8.21,8.21,0,0,1,4.06-2c2.64-.37,4.26,1.62,4.88,6,.12.91.33,2.7.62,5.38.18,1.89.37,3.52.57,4.88a14.88,14.88,0,0,0,1.23,4.6q1,2.24,5.44,1.62a18,18,0,0,0,2.86-.64l4.42-1.44a20.35,20.35,0,0,1,3.8-1q7-1,8.28,7.89a21.13,21.13,0,0,1-1.12,10.91q-1.53,3.88-8.3,4.84l-5,.71q-4.74.66-6.15,2.54-1.56,2.19-.32,11.77L289.63,554q1.86,13.14,4.21,17.33,3.44,6.23,11.06,5.14a36,36,0,0,0,5-1.13,25,25,0,0,1,3.62-.83c3.8-.54,6,1.31,6.58,5.52q1.09,7.79-7.19,15.4-9.6,8.79-25.24,11-18.25,2.56-28.49-5.77a27,27,0,0,1-9.42-15.18Q248.27,579.49,246.64,567.86Z" transform="translate(-96.07 -248.73)"/>
        <path class="cls-67" d="M326.36,555.52l-2.91-20.69c0-.19-.09-.64-.19-1.35-.07-.51-.16-1.12-.26-1.83a20.06,20.06,0,0,0-2.56-7.9,8.32,8.32,0,0,0-4.64-3.38,22.55,22.55,0,0,1-3.48-1.38q-2.94-1.65-3.57-6.09c-.49-3.54,1-6.59,4.42-9.18a127,127,0,0,1,38.33-19.06,26.21,26.21,0,0,1,3.43-.78,6.29,6.29,0,0,1,5.32,1.48,6.2,6.2,0,0,1,1.72,3.82l.19,1.36c.36,2.58,1.48,3.73,3.35,3.47,1-.14,2.49-.95,4.59-2.46q12.54-9,24.64-10.74a37.56,37.56,0,0,1,18.91,2.51,38,38,0,0,1,6.77,3.23q4.57,3.13,5.94,2.94,1.15-.17,5.3-3.72a60.89,60.89,0,0,1,15-9.28,62.34,62.34,0,0,1,16.87-5.35,39.76,39.76,0,0,1,17.65,1.32,28.16,28.16,0,0,1,13.33,8.46q8.85,10.33,11.27,27.49l3,21.46a134,134,0,0,0,3.25,16.93,10.78,10.78,0,0,0,6.39,7.2c2.63,1.08,4.33,2.09,5.12,3a10.54,10.54,0,0,1,1.88,5.07c.51,3.62-.14,6.24-1.93,7.88q-1.65,1.51-5.8,2.1c-.64.09-4.71.45-12.21,1.11q-7,.57-14.4,1.62-7.22,1-19.88,3.8l-1.45.21q-7.21,1-8.44-7.7a11.26,11.26,0,0,1,1.37-7.7q3.07-4.78,3.41-8,.51-3.43-1.63-19.33l-2.72-19.33q-1.5-10.69-8.63-15.19a15.1,15.1,0,0,0-10.32-2.28q-6.57.92-7.49,5.76-.36,1.81,1.14,13.09l3,21.47q2.63,17.31,4.21,20a22.73,22.73,0,0,0,5.23,5.78c1.88,1.52,3.05,3.86,3.49,7q.75,5.32-1.37,7.79a7.57,7.57,0,0,1-4.65,1.94c-.58.09-3.93.35-10,.81q-5.76.4-13.68,1.52t-20.64,3.91l-1.55.22q-7.25,1-8.47-7.7a12,12,0,0,1,.22-5.37,18.09,18.09,0,0,1,2.34-4.08,14.64,14.64,0,0,0,2.32-8.42,169.44,169.44,0,0,0-1.73-17.14l-2.72-19.34q-1.44-10.26-8.1-14.85a15.28,15.28,0,0,0-10.92-2.61q-5.81.82-6.95,4.53c-.52,1.53-.36,5.16.44,10.9l3.5,24.85q2.63,17.31,4.16,20a21.54,21.54,0,0,0,5.1,5.8,10.83,10.83,0,0,1,3.42,7q1.23,8.71-6,9.73c-.58.08-3.85.33-9.83.77q-5.55.39-12.78,1.4-7.73,1.08-23.31,4.29l-1.83.25q-8.88,1.25-10.12-7.56a10,10,0,0,1,.44-5.3q.65-1.66,4-4.32a11.3,11.3,0,0,0,4.29-8.7A148.37,148.37,0,0,0,326.36,555.52Z" transform="translate(-96.07 -248.73)"/>
        <path class="cls-68" d="M643.2,490.07l2.89,20.5q1.83,12.39,3.26,16.93a11,11,0,0,0,6.38,7.2c2.7,1.07,4.4,2.08,5.12,3a10.65,10.65,0,0,1,1.89,5.07c.5,3.62-.14,6.24-2,7.88q-1.75,1.53-5.81,2.1-1,.13-12,1.07-6.82.55-14,1.57t-22.65,4.19l-1.55.22q-7.23,1-8.45-7.6a12.34,12.34,0,0,1,.24-5.47,13.71,13.71,0,0,1,3.42-4.24,11.33,11.33,0,0,0,3.42-8.57,166.71,166.71,0,0,0-1.71-17.15l-1.87-13.34q-1.64-11.56-6.36-17.69a15.38,15.38,0,0,0-8.29-5.22,15.19,15.19,0,0,0-6.21-.4q-5.94.83-7.39,4.67-1,2.6.75,15.21l2.88,20.5q2,12.56,3.08,17a11.23,11.23,0,0,0,5.7,7.29,12.24,12.24,0,0,1,4.43,3.13,11.91,11.91,0,0,1,1.71,5.1q1.23,8.71-6.14,9.75-.67.09-11.7,1-6.95.57-13.91,1.55t-22.62,4.19l-1.84.26q-8.91,1.26-10.15-7.56a10,10,0,0,1,.44-5.3q.65-1.66,4-4.32a11.27,11.27,0,0,0,4.29-8.7A152.86,152.86,0,0,0,531,526.76l-2.91-20.69c0-.2-.09-.65-.19-1.35-.07-.52-.16-1.13-.26-1.84a20.12,20.12,0,0,0-2.56-7.9,8.32,8.32,0,0,0-4.64-3.38,22.09,22.09,0,0,1-3.48-1.38q-2.94-1.65-3.57-6.09-.74-5.29,4.43-9.18a128.32,128.32,0,0,1,38.51-19.08,28.79,28.79,0,0,1,3.54-.8q6.27-.87,7.3,7.06.52,4.47,3.52,4.05c1-.14,2.75-1.2,5.37-3.18q12.38-9.42,25-11.2a37.89,37.89,0,0,1,22.63,3.94q11,5.47,15.91,19.22A75.29,75.29,0,0,1,643.2,490.07Z" transform="translate(-96.07 -248.73)"/>
        <path class="cls-69" d="M758.39,402.18l11.71,83.26q1.68,11.91,3.17,15.54a5.67,5.67,0,0,0,3.26,2.89l5.15,1.55c2.32.66,3.78,3.05,4.36,7.18q.56,4-1.11,6.17-3.4,4.53-22.95,14.77-16.54,8.55-23.31,9.49c-2.64.37-4.51-.25-5.59-1.88a13.24,13.24,0,0,1-1.26-4.76l-.48-3.39c-.26-1.84-.77-2.71-1.55-2.61s-2.15,1.47-4.54,4.11a58.66,58.66,0,0,1-10,9A28.2,28.2,0,0,1,703,548a33.4,33.4,0,0,1-15.94-1.66,37.42,37.42,0,0,1-14-8.76Q658.78,523.34,655.66,501a72.69,72.69,0,0,1,.3-22,58.65,58.65,0,0,1,6.57-19.56,41.56,41.56,0,0,1,13.86-14.3,40,40,0,0,1,16.28-6.24,54.31,54.31,0,0,1,20.57,1.16,6,6,0,0,0,2.1.2c1.61-.23,2.28-1.3,2-3.24q-.63-4.44-5.91-6.35c-2.69-.94-4.38-1.78-5.07-2.54a8.26,8.26,0,0,1-2-4.44q-.79-5.7,4.35-9.67a119.53,119.53,0,0,1,38.74-19,25.06,25.06,0,0,1,3.9-.94c2.9-.41,4.86.54,5.91,2.83A24,24,0,0,1,758.39,402.18Zm-32.63,91.08-2.91-20.7a58,58,0,0,0-1.61-8.64q-2.19-6.48-9-5.53a10.83,10.83,0,0,0-5.9,3,15.69,15.69,0,0,0-4.07,6.29,36.4,36.4,0,0,0-1.41,17.15,44.24,44.24,0,0,0,8.26,19.73q6.23,8.69,12.19,7.84a6.14,6.14,0,0,0,3.82-2.11,6.24,6.24,0,0,0,1.68-4.08Q726.85,504.53,725.76,493.26Z" transform="translate(-96.07 -248.73)"/>
      </g>
      <g id="bevel" filter="url(#blur)">
        <g>
          <g class="cls-70">
            <path class="cls-59" d="M186.88,527.34a14.55,14.55,0,0,1-1.29-4.47q-1-7.07,4.93-7.9c1.23-.18,3.93-.41,8.11-.71,2.61-.15,6.06-.53,10.33-1.13s7.68-1.19,10.24-1.76q5.56-1.22,7.89-1.55a6.16,6.16,0,0,1,2.75.18,4.9,4.9,0,0,0-5.75-3.18q-2.33.33-7.89,1.55-3.84.86-10.24,1.76c-4.27.6-7.72,1-10.33,1.13-4.18.3-6.88.53-8.11.71q-5.93.82-4.93,7.9C183.16,523.89,184.59,526.37,186.88,527.34Z" transform="translate(-96.07 -248.73)"/>
            <path class="cls-59" d="M188.39,566.18a1.66,1.66,0,0,0,1.24.41q1.35-.18,2.41-5.28l4.4-21.87a15.66,15.66,0,0,0,.32-5.38c-.16-1.16-1-2-2.62-2.6l-.36-.1a16,16,0,0,1-.34,5.08L189,558.31c-.7,3.34-1.49,5.09-2.36,5.27A8.84,8.84,0,0,0,188.39,566.18Z" transform="translate(-96.07 -248.73)"/>
            <path class="cls-59" d="M114.21,534.08a8.88,8.88,0,0,1,1.09-6.32,6.71,6.71,0,0,1,4.93-2.91q2.8-.39,9.5-.65a97.42,97.42,0,0,0,11.71-1.07q10.76-1.51,27.38-5c1.08-.22,1.92-.37,2.5-.46a7.29,7.29,0,0,1,3.74.33,7.25,7.25,0,0,0-.33-.68q-1.95-3.27-6.41-2.65c-.58.09-1.42.24-2.5.46q-16.62,3.5-27.38,5a97.42,97.42,0,0,1-11.71,1.07q-6.69.25-9.5.65a6.71,6.71,0,0,0-4.93,2.91,8.88,8.88,0,0,0-1.09,6.32,7.53,7.53,0,0,0,2.35,4.8,5.71,5.71,0,0,0,1.36.72A9.4,9.4,0,0,1,114.21,534.08Z" transform="translate(-96.07 -248.73)"/>
            <path class="cls-59" d="M134,647.62a19.46,19.46,0,0,1,2.48-13.18,13.66,13.66,0,0,1,10.1-6.75,12,12,0,0,1,4.67.23,28.12,28.12,0,0,1,4.24,2.08,6.46,6.46,0,0,0,4.07.91q3.39-.48,8.21-7.57,4.35-6.23,3.79-10.2-.36-2.61-4.77-9.29l-32.09-49.56q-4.78-7.21-6.11-9a10.82,10.82,0,0,0-2.71-2.6c1,1.39,2.94,4.25,5.82,8.6l32.09,49.56q4.41,6.67,4.77,9.29.57,4-3.79,10.2-4.81,7.1-8.21,7.57a6.46,6.46,0,0,1-4.07-.91,28.12,28.12,0,0,0-4.24-2.08,12,12,0,0,0-4.67-.23,13.66,13.66,0,0,0-10.1,6.75A19.46,19.46,0,0,0,131,644.62a16.16,16.16,0,0,0,5.42,10.49c.24.21.5.39.74.59A17.31,17.31,0,0,1,134,647.62Z" transform="translate(-96.07 -248.73)"/>
          </g>
          <g class="cls-70">
            <path class="cls-59" d="M286,500.42q1,2.24,5.44,1.62a18,18,0,0,0,2.86-.64l4.42-1.44a20.35,20.35,0,0,1,3.8-1,7.31,7.31,0,0,1,4,.43c-1.4-2.74-3.73-3.89-7-3.43a20.35,20.35,0,0,0-3.8,1l-4.42,1.44a18,18,0,0,1-2.86.64,9.9,9.9,0,0,1-3,0A10.58,10.58,0,0,0,286,500.42Z" transform="translate(-96.07 -248.73)"/>
            <path class="cls-59" d="M252.71,588.5q-1.44-6-3.07-17.64l-3.29-23.38c-.1-.71-.29-2.06-.57-4.07q-.32-2.22-.6-4.26c-.48-3.42-1.65-5.93-3.5-7.51a6.77,6.77,0,0,0-1.15-.74,14.69,14.69,0,0,1,1.65,5.25q.28,2,.6,4.26c.28,2,.47,3.36.57,4.07l3.29,23.38q1.63,11.63,3.07,17.64a27,27,0,0,0,8.82,14.64A27.25,27.25,0,0,1,252.71,588.5Z" transform="translate(-96.07 -248.73)"/>
            <path class="cls-59" d="M304.9,576.5a10.92,10.92,0,0,1-7.53-1.27q3.47,5.26,10.53,4.27a36,36,0,0,0,5-1.13,25,25,0,0,1,3.62-.83,6.71,6.71,0,0,1,3,.19c-1-2.53-3-3.61-6-3.19a25,25,0,0,0-3.62.83A36,36,0,0,1,304.9,576.5Z" transform="translate(-96.07 -248.73)"/>
            <path class="cls-59" d="M232.57,523a8.85,8.85,0,0,1,2.64-7.79q6.14-6.09,39.45-33.7a8.21,8.21,0,0,1,4.06-2,3.5,3.5,0,0,1,1.17,0c-.84-2.28-2.23-3.3-4.17-3a8.21,8.21,0,0,0-4.06,2q-33.32,27.6-39.45,33.7a8.85,8.85,0,0,0-2.64,7.79q.75,5.33,3.7,6.2l.12,0A13.07,13.07,0,0,1,232.57,523Z" transform="translate(-96.07 -248.73)"/>
          </g>
          <g class="cls-70">
            <path class="cls-59" d="M448.94,565.35l-.61-.52a25.43,25.43,0,0,0,2.25,2.33A8.35,8.35,0,0,0,448.94,565.35Z" transform="translate(-96.07 -248.73)"/>
            <path class="cls-59" d="M379.69,575.09l-.35-.31a22.26,22.26,0,0,0,1.79,1.91A8.48,8.48,0,0,0,379.69,575.09Z" transform="translate(-96.07 -248.73)"/>
            <path class="cls-59" d="M521.46,557a25.61,25.61,0,0,1,2.93,1.39,7.52,7.52,0,0,0-.81-1.36c-.79-.94-2.49-1.95-5.12-3a12.13,12.13,0,0,1-2-1.06A10.78,10.78,0,0,0,521.46,557Z" transform="translate(-96.07 -248.73)"/>
            <path class="cls-59" d="M368.51,497c1-.14,2.49-.95,4.59-2.46q12.54-9,24.64-10.74a37.56,37.56,0,0,1,18.91,2.51,38,38,0,0,1,6.77,3.23q4.57,3.13,5.94,2.94,1.15-.17,5.3-3.72a60.89,60.89,0,0,1,15-9.28,62.34,62.34,0,0,1,16.87-5.35,39.76,39.76,0,0,1,17.65,1.32A29.77,29.77,0,0,1,494.63,481l-.1-.12a28.16,28.16,0,0,0-13.33-8.46,39.76,39.76,0,0,0-17.65-1.32,62.34,62.34,0,0,0-16.87,5.35,60.89,60.89,0,0,0-15,9.28q-4.14,3.56-5.3,3.72-1.37.19-5.94-2.94a38,38,0,0,0-6.77-3.23,37.56,37.56,0,0,0-18.91-2.51q-12.09,1.71-24.64,10.74c-2.1,1.51-3.62,2.32-4.59,2.46h-.26C365.69,496.25,366.77,497.25,368.51,497Z" transform="translate(-96.07 -248.73)"/>
            <path class="cls-59" d="M464.35,574.12a11.26,11.26,0,0,1,1.37-7.7q3.07-4.78,3.41-8,.51-3.43-1.63-19.33l-2.72-19.33c-.9-6.45-3.36-11.19-7.33-14.26a23.41,23.41,0,0,1,4.33,11.26l2.72,19.33q2.13,15.9,1.63,19.33-.33,3.21-3.41,8a11.26,11.26,0,0,0-1.37,7.7c.53,3.83,1.95,6.24,4.23,7.25A13.28,13.28,0,0,1,464.35,574.12Z" transform="translate(-96.07 -248.73)"/>
            <path class="cls-59" d="M311.75,515.9c-.49-3.54,1-6.59,4.42-9.18a127,127,0,0,1,38.33-19.06,26.21,26.21,0,0,1,3.43-.78,6.83,6.83,0,0,1,3.53.36,5,5,0,0,0-1.21-1.88,6.29,6.29,0,0,0-5.32-1.48,26.21,26.21,0,0,0-3.43.78,127,127,0,0,0-38.33,19.06c-3.44,2.59-4.91,5.64-4.42,9.18q.63,4.44,3.57,6.09a3.8,3.8,0,0,0,.42.22A10.56,10.56,0,0,1,311.75,515.9Z" transform="translate(-96.07 -248.73)"/>
            <path class="cls-59" d="M395,583.86a12,12,0,0,1,.22-5.37,18.09,18.09,0,0,1,2.34-4.08,14.64,14.64,0,0,0,2.32-8.42,169.44,169.44,0,0,0-1.73-17.14l-2.72-19.34c-.9-6.44-3.37-11.19-7.37-14.27a23.27,23.27,0,0,1,4.37,11.27l2.72,19.34A169.44,169.44,0,0,1,396.91,563a14.64,14.64,0,0,1-2.32,8.42,18.09,18.09,0,0,0-2.34,4.08,12,12,0,0,0-.22,5.37c.54,3.83,2,6.24,4.23,7.25A13.54,13.54,0,0,1,395,583.86Z" transform="translate(-96.07 -248.73)"/>
            <path class="cls-59" d="M322.23,594a10,10,0,0,1,.44-5.3q.65-1.66,4-4.32a11.29,11.29,0,0,0,4.29-8.7,148.37,148.37,0,0,0-1.62-17.16l-2.91-20.69c0-.19-.09-.64-.19-1.35-.07-.51-.16-1.12-.26-1.83a20.06,20.06,0,0,0-2.56-7.9,7,7,0,0,0-2.72-2.52,21,21,0,0,1,2.28,7.42c.1.71.19,1.32.26,1.83.1.71.16,1.16.19,1.35l2.91,20.69A148.37,148.37,0,0,1,328,572.68a11.29,11.29,0,0,1-4.29,8.7q-3.37,2.65-4,4.32a10,10,0,0,0-.44,5.3c.49,3.49,1.88,5.78,4.17,6.91A12,12,0,0,1,322.23,594Z" transform="translate(-96.07 -248.73)"/>
          </g>
          <g class="cls-70">
            <path class="cls-59" d="M587.06,547.77c.75.37,1.4.74,2,1.09a7.31,7.31,0,0,0-.55-1,12.24,12.24,0,0,0-4.43-3.13,11.63,11.63,0,0,1-1-.61A10.74,10.74,0,0,0,587.06,547.77Z" transform="translate(-96.07 -248.73)"/>
            <path class="cls-59" d="M599.4,555.23a12.34,12.34,0,0,1,.24-5.47,13.71,13.71,0,0,1,3.42-4.24,11.33,11.33,0,0,0,3.42-8.57,166.71,166.71,0,0,0-1.71-17.15l-1.87-13.34q-1.64-11.56-6.36-17.69a13.91,13.91,0,0,0-2.74-2.62c3,4.07,5,9.82,6.1,17.31l1.87,13.34A166.71,166.71,0,0,1,603.48,534a11.33,11.33,0,0,1-3.42,8.57,13.71,13.71,0,0,0-3.42,4.24,12.34,12.34,0,0,0-.24,5.47c.53,3.78,1.94,6.15,4.21,7.15A13.14,13.14,0,0,1,599.4,555.23Z" transform="translate(-96.07 -248.73)"/>
            <path class="cls-59" d="M658.73,537.7a24.91,24.91,0,0,1,2.91,1.34,8.43,8.43,0,0,0-.79-1.31c-.72-1-2.42-2-5.12-3a13.88,13.88,0,0,1-1.94-1.08A11.18,11.18,0,0,0,658.73,537.7Z" transform="translate(-96.07 -248.73)"/>
            <path class="cls-59" d="M573.66,469.18c1-.14,2.75-1.2,5.37-3.18q12.38-9.42,25-11.2a37.89,37.89,0,0,1,22.63,3.94,28.46,28.46,0,0,1,6,4,28.8,28.8,0,0,0-9-7,37.89,37.89,0,0,0-22.63-3.94q-12.66,1.79-25,11.2c-2.62,2-4.4,3-5.37,3.18h-.35C570.8,468.43,571.92,469.42,573.66,469.18Z" transform="translate(-96.07 -248.73)"/>
            <path class="cls-59" d="M526.84,565.23a10,10,0,0,1,.44-5.3q.65-1.66,4-4.32a11.27,11.27,0,0,0,4.29-8.7A152.86,152.86,0,0,0,534,529.76l-2.91-20.69c0-.2-.09-.65-.19-1.35-.07-.52-.16-1.13-.26-1.84a20.12,20.12,0,0,0-2.56-7.9,7,7,0,0,0-2.72-2.52,21,21,0,0,1,2.28,7.42c.1.71.19,1.32.26,1.84.1.7.16,1.15.19,1.35L531,526.76a152.86,152.86,0,0,1,1.62,17.15,11.27,11.27,0,0,1-4.29,8.7q-3.37,2.65-4,4.32a10,10,0,0,0-.44,5.3c.49,3.48,1.88,5.77,4.17,6.9A11.86,11.86,0,0,1,526.84,565.23Z" transform="translate(-96.07 -248.73)"/>
            <path class="cls-59" d="M516.36,487.13q-.74-5.29,4.43-9.18a128.32,128.32,0,0,1,38.51-19.08,28.79,28.79,0,0,1,3.54-.8,6.64,6.64,0,0,1,3.29.28c-1.2-2.6-3.3-3.7-6.29-3.28a28.79,28.79,0,0,0-3.54.8A128.32,128.32,0,0,0,517.79,475q-5.17,3.89-4.43,9.18.63,4.44,3.57,6.09a3.8,3.8,0,0,0,.42.22A10.56,10.56,0,0,1,516.36,487.13Z" transform="translate(-96.07 -248.73)"/>
          </g>
          <g class="cls-70">
            <path class="cls-59" d="M706.37,428.15a6.22,6.22,0,0,0,1.81,1.21,8.64,8.64,0,0,1-.82-2.65q-.79-5.7,4.35-9.67a119.53,119.53,0,0,1,38.74-19,25.06,25.06,0,0,1,3.9-.94,6.82,6.82,0,0,1,3,.17c0-.12-.09-.24-.13-.34-1-2.29-3-3.24-5.91-2.83a25.06,25.06,0,0,0-3.9.94,119.53,119.53,0,0,0-38.74,19q-5.15,4-4.35,9.67A8.26,8.26,0,0,0,706.37,428.15Z" transform="translate(-96.07 -248.73)"/>
            <path class="cls-59" d="M776.27,504a5.67,5.67,0,0,0,3.26,2.89l5.15,1.55.25.1a5.22,5.22,0,0,0-3.25-3.1l-5.15-1.55-.37-.17C776.2,503.79,776.23,503.89,776.27,504Z" transform="translate(-96.07 -248.73)"/>
            <path class="cls-59" d="M658.66,504a72.69,72.69,0,0,1,.3-22,58.65,58.65,0,0,1,6.57-19.56,41.56,41.56,0,0,1,13.86-14.3,40,40,0,0,1,16.28-6.24,54.31,54.31,0,0,1,20.57,1.16,6,6,0,0,0,2.1.2c1.61-.23,2.28-1.3,2-3.24a7.18,7.18,0,0,0-3.77-5.35,7,7,0,0,1,.77,2.35c.27,1.94-.4,3-2,3.24a6,6,0,0,1-2.1-.2,54.31,54.31,0,0,0-20.57-1.16,40,40,0,0,0-16.28,6.24,41.56,41.56,0,0,0-13.86,14.3A58.65,58.65,0,0,0,656,479a72.69,72.69,0,0,0-.3,22q3.14,22.3,17.45,36.58c.39.39.79.76,1.2,1.13Q661.59,524.89,658.66,504Z" transform="translate(-96.07 -248.73)"/>
            <path class="cls-59" d="M729.79,509.21q.06-1.68-1-12.95l-2.91-20.7a58,58,0,0,0-1.61-8.64,8,8,0,0,0-3.83-4.89,10.89,10.89,0,0,1,.83,1.89,58,58,0,0,1,1.61,8.64l2.91,20.7q1.1,11.26,1,12.95a6.24,6.24,0,0,1-1.68,4.08,6.14,6.14,0,0,1-3.82,2.11c-2.43.35-4.9-.51-7.39-2.54q5.28,6.25,10.39,5.54a6.14,6.14,0,0,0,3.82-2.11A6.24,6.24,0,0,0,729.79,509.21Z" transform="translate(-96.07 -248.73)"/>
            <path class="cls-59" d="M734.82,539.39l-.48-3.39c-.26-1.84-.77-2.71-1.55-2.61a3.39,3.39,0,0,0-1.28.81l.31,2.19a13.24,13.24,0,0,0,1.26,4.76,4.2,4.2,0,0,0,2.46,1.75A22.5,22.5,0,0,1,734.82,539.39Z" transform="translate(-96.07 -248.73)"/>
          </g>
        </g>
      </g>
      <g id="shadow" filter="url(#blur)">
        <g class="cls-71">
          <path class="cls-72" d="M173.15,519.54a10.26,10.26,0,0,1,0,3.65c-.24,1.15-1.28,2.52-3.13,4.09a4,4,0,0,0-1.6,3.58,16.75,16.75,0,0,0,1.38,4.25L180,556.17q1.78,3.6,2.43,4a1.66,1.66,0,0,0,1.24.41h.05c-.23-.42-.46-.89-.72-1.41l-10.15-21.06a16.75,16.75,0,0,1-1.38-4.25,4,4,0,0,1,1.6-3.58c1.85-1.57,2.89-2.94,3.13-4.09a10.26,10.26,0,0,0,0-3.65,15,15,0,0,0-1.42-5.23,5.3,5.3,0,0,0-2.67-2.32A18.43,18.43,0,0,1,173.15,519.54Z" transform="translate(-96.07 -248.73)"/>
          <path class="cls-72" d="M187.8,527.64c1.47.34,2.47.58,3,.72,0-.1,0-.21,0-.3-.16-1.16-1-2-2.62-2.6-.27-.09-1.39-.37-3.34-.82a5.22,5.22,0,0,1-.92-.3A5.78,5.78,0,0,0,187.8,527.64Z" transform="translate(-96.07 -248.73)"/>
          <path class="cls-72" d="M230.59,512.94c-.46-3.31-1.72-5.28-3.75-5.94a11.66,11.66,0,0,1,.75,2.94,12.16,12.16,0,0,1-.47,6.49,5.38,5.38,0,0,1-2.72,2.66l-3.08,1.42a10.57,10.57,0,0,0-5.44,5.22q-1.26,3.63-5.28,17.11l-18,58.36a128.94,128.94,0,0,1-8.4,20.6,110.75,110.75,0,0,1-11,17.93,49.18,49.18,0,0,1-14,12.12,32.38,32.38,0,0,1-11.64,4.2,17,17,0,0,1-13.42-3.35,14.72,14.72,0,0,0,2.26,2.41,16.93,16.93,0,0,0,14.16,3.94,32.38,32.38,0,0,0,11.64-4.2,49.18,49.18,0,0,0,14-12.12,110.75,110.75,0,0,0,11-17.93,128.94,128.94,0,0,0,8.4-20.6l18-58.36q4-13.49,5.28-17.11a10.57,10.57,0,0,1,5.44-5.22l3.08-1.42a5.38,5.38,0,0,0,2.72-2.66A12.16,12.16,0,0,0,230.59,512.94Z" transform="translate(-96.07 -248.73)"/>
          <path class="cls-72" d="M122.55,539.29A12,12,0,0,0,116.1,535a43.31,43.31,0,0,1-4.18-1.36,6.9,6.9,0,0,0,1.64,2.28c.6.51,2.45,1.21,5.54,2.08a14,14,0,0,1,3.74,1.73Z" transform="translate(-96.07 -248.73)"/>
        </g>
        <g class="cls-71">
          <path class="cls-72" d="M277.6,479.56c.12.91.33,2.7.62,5.38.18,1.89.37,3.52.57,4.88a14.88,14.88,0,0,0,1.23,4.6,3,3,0,0,0,2.47,1.65,20.14,20.14,0,0,1-.7-3.25c-.2-1.36-.39-3-.57-4.88-.29-2.68-.5-4.47-.62-5.38-.52-3.66-1.76-5.63-3.71-5.94A14.25,14.25,0,0,1,277.6,479.56Z" transform="translate(-96.07 -248.73)"/>
          <path class="cls-72" d="M304.82,500.85a21.13,21.13,0,0,1-1.12,10.91q-1.53,3.88-8.3,4.84l-5,.71q-4.74.66-6.15,2.54-1.56,2.19-.32,11.77L286.63,551q1.86,13.14,4.21,17.33a10.32,10.32,0,0,0,3.53,3.87c-.18-.28-.36-.56-.53-.87q-2.35-4.18-4.21-17.33l-2.73-19.41q-1.25-9.58.32-11.77,1.41-1.87,6.15-2.54l5-.71q6.77-.95,8.3-4.84a21.13,21.13,0,0,0,1.12-10.91c-.55-4-2-6.45-4.28-7.46A14.31,14.31,0,0,1,304.82,500.85Z" transform="translate(-96.07 -248.73)"/>
          <path class="cls-72" d="M320.05,580.06c-.41-2.94-1.62-4.7-3.6-5.33a9.77,9.77,0,0,1,.6,2.33q1.09,7.79-7.19,15.4-9.6,8.79-25.24,11-18.25,2.56-28.49-5.77l-.6-.54a28.05,28.05,0,0,0,3.6,3.54q10.23,8.34,28.49,5.77,15.64-2.21,25.24-11Q321.15,587.84,320.05,580.06Z" transform="translate(-96.07 -248.73)"/>
          <path class="cls-72" d="M235.68,525.64a17.57,17.57,0,0,0-5.29-2.36,4.65,4.65,0,0,0,2.88,3,27.53,27.53,0,0,1,4.26,1.66A8.62,8.62,0,0,0,235.68,525.64Z" transform="translate(-96.07 -248.73)"/>
        </g>
        <g class="cls-71">
          <path class="cls-72" d="M317.44,520.75a8.32,8.32,0,0,0-4.64-3.38c-1.46-.5-2.48-.89-3.06-1.16a6.33,6.33,0,0,0,2.58,2.78,22.55,22.55,0,0,0,3.48,1.38,12.19,12.19,0,0,1,1.92.86C317.63,521.07,317.54,520.9,317.44,520.75Z" transform="translate(-96.07 -248.73)"/>
          <path class="cls-72" d="M502.8,505.41l3,21.46a134,134,0,0,0,3.25,16.93,10.68,10.68,0,0,0,4.44,6.14,11.88,11.88,0,0,1-1.44-3.14,134,134,0,0,1-3.25-16.93l-3-21.46q-2.42-17.18-11.27-27.49a24.65,24.65,0,0,0-2.9-2.88Q500.39,488.35,502.8,505.41Z" transform="translate(-96.07 -248.73)"/>
          <path class="cls-72" d="M359,486.18l.19,1.36c.35,2.45,1.38,3.6,3.09,3.48,0-.16-.07-.31-.09-.48l-.19-1.36a6.2,6.2,0,0,0-1.72-3.82,5.91,5.91,0,0,0-1.79-1.12A8.07,8.07,0,0,1,359,486.18Z" transform="translate(-96.07 -248.73)"/>
          <path class="cls-72" d="M379.69,575.09c-.56-.47-1.08-.94-1.56-1.4a12.09,12.09,0,0,1,2,5.43q1.23,8.71-6,9.73c-.58.08-3.85.33-9.83.77q-5.55.39-12.78,1.4-7.73,1.08-23.31,4.29l-1.83.25a10.13,10.13,0,0,1-6-.65q2.39,4.58,9,3.65l1.83-.25q15.58-3.21,23.31-4.29,7.23-1,12.78-1.4c6-.44,9.25-.69,9.83-.77q7.25-1,6-9.73A10.83,10.83,0,0,0,379.69,575.09Z" transform="translate(-96.07 -248.73)"/>
          <path class="cls-72" d="M448.94,565.35c-.48-.4-.93-.8-1.36-1.19a12.09,12.09,0,0,1,1.85,5.21q.75,5.32-1.37,7.79a7.57,7.57,0,0,1-4.65,1.94c-.58.09-3.93.35-10,.81q-5.76.4-13.68,1.52t-20.64,3.91l-1.55.22a7.64,7.64,0,0,1-4.24-.45q2.12,4.17,7.24,3.45l1.55-.22q12.61-2.79,20.64-3.91t13.68-1.52c6.11-.46,9.46-.72,10-.81a7.57,7.57,0,0,0,4.65-1.94q2.12-2.46,1.37-7.79C452,569.21,450.82,566.87,448.94,565.35Z" transform="translate(-96.07 -248.73)"/>
          <path class="cls-72" d="M525.46,562.1a10.64,10.64,0,0,0-1.88-5.07,8,8,0,0,0-2.19-1.64,12.4,12.4,0,0,1,1.07,3.71c.51,3.62-.14,6.24-1.93,7.88q-1.65,1.51-5.8,2.1c-.64.09-4.71.45-12.21,1.11q-7,.57-14.4,1.62-7.22,1-19.88,3.8l-1.45.21a7.64,7.64,0,0,1-4.21-.45c1.4,2.77,3.8,3.93,7.21,3.45l1.45-.21q12.66-2.79,19.88-3.8,7.41-1,14.4-1.62c7.5-.66,11.57-1,12.21-1.11q4.15-.58,5.8-2.1C525.32,568.34,526,565.72,525.46,562.1Z" transform="translate(-96.07 -248.73)"/>
          <path class="cls-72" d="M450.15,498.58a15.1,15.1,0,0,0-10.32-2.28q-6.57.92-7.49,5.76-.36,1.81,1.14,13.09l3,21.47q2.63,17.31,4.21,20a21.9,21.9,0,0,0,4.62,5.26,15.21,15.21,0,0,1-1.62-2.26q-1.59-2.64-4.21-20l-3-21.47q-1.5-11.26-1.14-13.09.92-4.85,7.49-5.76a15.1,15.1,0,0,1,10.32,2.28c.45.28.87.61,1.3.93A16.76,16.76,0,0,0,450.15,498.58Z" transform="translate(-96.07 -248.73)"/>
          <path class="cls-72" d="M381.36,508.66a15.28,15.28,0,0,0-10.92-2.61q-5.81.82-6.95,4.53c-.52,1.53-.36,5.16.44,10.9l3.5,24.85q2.63,17.31,4.16,20a21,21,0,0,0,4.75,5.49,16.71,16.71,0,0,1-1.75-2.49q-1.54-2.65-4.16-20l-3.5-24.85c-.8-5.74-1-9.37-.44-10.9q1.14-3.71,6.95-4.53a15.28,15.28,0,0,1,10.92,2.61c.26.18.49.39.73.58A16.89,16.89,0,0,0,381.36,508.66Z" transform="translate(-96.07 -248.73)"/>
        </g>
        <g class="cls-71">
          <path class="cls-72" d="M590.54,482.77a15.38,15.38,0,0,0-8.29-5.22,15.19,15.19,0,0,0-6.21-.4q-5.94.83-7.39,4.67-1,2.6.75,15.21l2.88,20.5q2,12.56,3.08,17a11.37,11.37,0,0,0,4.67,6.68,12.65,12.65,0,0,1-1.67-3.68q-1.11-4.4-3.08-17L572.4,500q-1.77-12.61-.75-15.21,1.46-3.84,7.39-4.67a15.19,15.19,0,0,1,6.21.4,17.16,17.16,0,0,1,5.55,2.6C590.71,483,590.63,482.89,590.54,482.77Z" transform="translate(-96.07 -248.73)"/>
          <path class="cls-72" d="M564.14,459.13c.33,2.8,1.39,4.14,3.17,4.06a10.23,10.23,0,0,1-.17-1.06q-.72-5.55-4-6.78A13.26,13.26,0,0,1,564.14,459.13Z" transform="translate(-96.07 -248.73)"/>
          <path class="cls-72" d="M636.6,472a75.29,75.29,0,0,1,3.6,15.11l2.89,20.5q1.83,12.39,3.26,16.93a10.76,10.76,0,0,0,4.44,6.12,11.42,11.42,0,0,1-1.44-3.12q-1.43-4.54-3.26-16.93l-2.89-20.5A75.29,75.29,0,0,0,639.6,475a35.05,35.05,0,0,0-9.9-15.22A37.67,37.67,0,0,1,636.6,472Z" transform="translate(-96.07 -248.73)"/>
          <path class="cls-72" d="M662.74,542.8a10.65,10.65,0,0,0-1.89-5.07,7.15,7.15,0,0,0-2.21-1.69,12.35,12.35,0,0,1,1.1,3.76c.5,3.62-.14,6.24-2,7.88q-1.75,1.53-5.81,2.1-1,.13-12,1.07-6.82.55-14,1.56t-22.65,4.2l-1.55.22a7.64,7.64,0,0,1-4.24-.45q2.1,4.17,7.24,3.45l1.55-.22q15.51-3.2,22.65-4.2t14-1.56q11-.93,12-1.07,4-.57,5.81-2.1C662.6,549,663.24,546.42,662.74,542.8Z" transform="translate(-96.07 -248.73)"/>
          <path class="cls-72" d="M522.05,492a8.32,8.32,0,0,0-4.64-3.38c-1.46-.5-2.48-.89-3.06-1.16a6.33,6.33,0,0,0,2.58,2.78,22.09,22.09,0,0,0,3.48,1.38,12.19,12.19,0,0,1,1.92.86C522.24,492.3,522.15,492.14,522.05,492Z" transform="translate(-96.07 -248.73)"/>
          <path class="cls-72" d="M588.49,547.9a8.26,8.26,0,0,0-2.45-2A13.82,13.82,0,0,1,587.2,550q1.23,8.71-6.14,9.75-.67.09-11.7,1-6.95.57-13.91,1.55t-22.62,4.19l-1.84.26a10.23,10.23,0,0,1-6-.66q2.38,4.59,9,3.66l1.84-.26q15.54-3.19,22.62-4.19t13.91-1.55q11-.94,11.7-1,7.37-1,6.14-9.75A11.91,11.91,0,0,0,588.49,547.9Z" transform="translate(-96.07 -248.73)"/>
        </g>
        <g class="cls-71">
          <path class="cls-72" d="M708.44,427.69a29.5,29.5,0,0,1-3.26-1.33,7.64,7.64,0,0,0,1.19,1.79c.69.76,2.38,1.6,5.07,2.54a12.84,12.84,0,0,1,2.14,1A8.89,8.89,0,0,0,708.44,427.69Z" transform="translate(-96.07 -248.73)"/>
          <path class="cls-72" d="M706.1,501.56a27,27,0,0,0,4.8,5.3c-.6-.7-1.2-1.47-1.8-2.3a44.24,44.24,0,0,1-8.26-19.73,36.4,36.4,0,0,1,1.41-17.15,15.69,15.69,0,0,1,4.07-6.29,10.83,10.83,0,0,1,5.9-3,8.69,8.69,0,0,1,5.19.64q-2.46-4.44-8.19-3.64a10.83,10.83,0,0,0-5.9,3,15.69,15.69,0,0,0-4.07,6.29,36.4,36.4,0,0,0-1.41,17.15A44.24,44.24,0,0,0,706.1,501.56Z" transform="translate(-96.07 -248.73)"/>
          <path class="cls-72" d="M755.39,399.18l11.71,83.26q1.68,11.91,3.17,15.54a5.57,5.57,0,0,0,2.89,2.72q-1.45-3.79-3.06-15.26l-11.71-83.26a24,24,0,0,0-1.13-5.28,4.66,4.66,0,0,0-2.87-2.66A28.71,28.71,0,0,1,755.39,399.18Z" transform="translate(-96.07 -248.73)"/>
          <path class="cls-72" d="M786,512.6c-.56-4-1.94-6.32-4.11-7.08A14.7,14.7,0,0,1,783,509.6q.56,4-1.11,6.17-3.4,4.53-22.95,14.77-16.54,8.55-23.31,9.49a7.59,7.59,0,0,1-3.13-.13,4.87,4.87,0,0,0,.54,1.25c1.08,1.63,2.95,2.25,5.59,1.88q6.76-.94,23.31-9.49,19.54-10.24,22.95-14.77Q786.6,516.56,786,512.6Z" transform="translate(-96.07 -248.73)"/>
          <path class="cls-72" d="M728.34,530c-.26-1.84-.77-2.71-1.55-2.61s-2.15,1.47-4.54,4.11a58.66,58.66,0,0,1-10,9A28.2,28.2,0,0,1,700,545a33.4,33.4,0,0,1-15.94-1.66,37.3,37.3,0,0,1-12.78-7.63c.58.63,1.18,1.26,1.8,1.87a37.42,37.42,0,0,0,14,8.76A33.4,33.4,0,0,0,703,548a28.2,28.2,0,0,0,12.17-4.49,58.66,58.66,0,0,0,10-9,39.32,39.32,0,0,1,3.26-3.3Z" transform="translate(-96.07 -248.73)"/>
        </g>
      </g>
    </g>
  </g>
</svg>
